<?xml version="1.0" encoding="utf-8" standalone="no"?>
<!DOCTYPE svg PUBLIC "-//W3C//DTD SVG 1.1//EN"
  "http://www.w3.org/Graphics/SVG/1.1/DTD/svg11.dtd">
<svg xmlns:xlink="http://www.w3.org/1999/xlink" width="216.7075pt" height="155.621875pt" viewBox="0 0 216.7075 155.621875" xmlns="http://www.w3.org/2000/svg" version="1.1">
 <metadata>
  <rdf:RDF xmlns:dc="http://purl.org/dc/elements/1.1/" xmlns:cc="http://creativecommons.org/ns#" xmlns:rdf="http://www.w3.org/1999/02/22-rdf-syntax-ns#">
   <cc:Work>
    <dc:type rdf:resource="http://purl.org/dc/dcmitype/StillImage"/>
    <dc:date>2022-09-26T13:31:42.817409</dc:date>
    <dc:format>image/svg+xml</dc:format>
    <dc:creator>
     <cc:Agent>
      <dc:title>Matplotlib v3.6.0, https://matplotlib.org/</dc:title>
     </cc:Agent>
    </dc:creator>
   </cc:Work>
  </rdf:RDF>
 </metadata>
 <defs>
  <style type="text/css">*{stroke-linejoin: round; stroke-linecap: butt}</style>
 </defs>
 <g id="figure_1">
  <g id="patch_1">
   <path d="M 0 155.621875 
L 216.7075 155.621875 
L 216.7075 0 
L 0 0 
z
" style="fill: #ffffff"/>
  </g>
  <g id="axes_1">
   <g id="patch_2">
    <path d="M 39.5625 121.119375 
L 206.9625 121.119375 
L 206.9625 10.239375 
L 39.5625 10.239375 
z
" style="fill: #ffffff"/>
   </g>
   <g id="matplotlib.axis_1">
    <g id="xtick_1">
     <g id="line2d_1">
      <path d="M 39.5625 121.119375 
L 39.5625 10.239375 
" clip-path="url(#p1a6fe5fd72)" style="fill: none; stroke-dasharray: 3.7,1.6; stroke-dashoffset: 0; stroke: #b0b0b0"/>
     </g>
     <g id="line2d_2">
      <defs>
       <path id="mbdbc89c087" d="M 0 0 
L 0 3.5 
" style="stroke: #000000; stroke-width: 0.8"/>
      </defs>
      <g>
       <use xlink:href="#mbdbc89c087" x="39.5625" y="121.119375" style="stroke: #000000; stroke-width: 0.8"/>
      </g>
     </g>
     <g id="text_1">
      <!-- 0 -->
      <g transform="translate(37.0175 134.198125) scale(0.08 -0.08)">
       <defs>
        <path id="DejaVuSans-30" d="M 2034 4250 
Q 1547 4250 1301 3770 
Q 1056 3291 1056 2328 
Q 1056 1369 1301 889 
Q 1547 409 2034 409 
Q 2525 409 2770 889 
Q 3016 1369 3016 2328 
Q 3016 3291 2770 3770 
Q 2525 4250 2034 4250 
z
M 2034 4750 
Q 2819 4750 3233 4129 
Q 3647 3509 3647 2328 
Q 3647 1150 3233 529 
Q 2819 -91 2034 -91 
Q 1250 -91 836 529 
Q 422 1150 422 2328 
Q 422 3509 836 4129 
Q 1250 4750 2034 4750 
z
" transform="scale(0.015625)"/>
       </defs>
       <use xlink:href="#DejaVuSans-30"/>
      </g>
     </g>
    </g>
    <g id="xtick_2">
     <g id="line2d_3">
      <path d="M 73.0425 121.119375 
L 73.0425 10.239375 
" clip-path="url(#p1a6fe5fd72)" style="fill: none; stroke-dasharray: 3.7,1.6; stroke-dashoffset: 0; stroke: #b0b0b0"/>
     </g>
     <g id="line2d_4">
      <g>
       <use xlink:href="#mbdbc89c087" x="73.0425" y="121.119375" style="stroke: #000000; stroke-width: 0.8"/>
      </g>
     </g>
     <g id="text_2">
      <!-- 1 -->
      <g transform="translate(70.4975 134.198125) scale(0.08 -0.08)">
       <defs>
        <path id="DejaVuSans-31" d="M 794 531 
L 1825 531 
L 1825 4091 
L 703 3866 
L 703 4441 
L 1819 4666 
L 2450 4666 
L 2450 531 
L 3481 531 
L 3481 0 
L 794 0 
L 794 531 
z
" transform="scale(0.015625)"/>
       </defs>
       <use xlink:href="#DejaVuSans-31"/>
      </g>
     </g>
    </g>
    <g id="xtick_3">
     <g id="line2d_5">
      <path d="M 106.5225 121.119375 
L 106.5225 10.239375 
" clip-path="url(#p1a6fe5fd72)" style="fill: none; stroke-dasharray: 3.7,1.6; stroke-dashoffset: 0; stroke: #b0b0b0"/>
     </g>
     <g id="line2d_6">
      <g>
       <use xlink:href="#mbdbc89c087" x="106.5225" y="121.119375" style="stroke: #000000; stroke-width: 0.8"/>
      </g>
     </g>
     <g id="text_3">
      <!-- 2 -->
      <g transform="translate(103.9775 134.198125) scale(0.08 -0.08)">
       <defs>
        <path id="DejaVuSans-32" d="M 1228 531 
L 3431 531 
L 3431 0 
L 469 0 
L 469 531 
Q 828 903 1448 1529 
Q 2069 2156 2228 2338 
Q 2531 2678 2651 2914 
Q 2772 3150 2772 3378 
Q 2772 3750 2511 3984 
Q 2250 4219 1831 4219 
Q 1534 4219 1204 4116 
Q 875 4013 500 3803 
L 500 4441 
Q 881 4594 1212 4672 
Q 1544 4750 1819 4750 
Q 2544 4750 2975 4387 
Q 3406 4025 3406 3419 
Q 3406 3131 3298 2873 
Q 3191 2616 2906 2266 
Q 2828 2175 2409 1742 
Q 1991 1309 1228 531 
z
" transform="scale(0.015625)"/>
       </defs>
       <use xlink:href="#DejaVuSans-32"/>
      </g>
     </g>
    </g>
    <g id="xtick_4">
     <g id="line2d_7">
      <path d="M 140.0025 121.119375 
L 140.0025 10.239375 
" clip-path="url(#p1a6fe5fd72)" style="fill: none; stroke-dasharray: 3.7,1.6; stroke-dashoffset: 0; stroke: #b0b0b0"/>
     </g>
     <g id="line2d_8">
      <g>
       <use xlink:href="#mbdbc89c087" x="140.0025" y="121.119375" style="stroke: #000000; stroke-width: 0.8"/>
      </g>
     </g>
     <g id="text_4">
      <!-- 3 -->
      <g transform="translate(137.4575 134.198125) scale(0.08 -0.08)">
       <defs>
        <path id="DejaVuSans-33" d="M 2597 2516 
Q 3050 2419 3304 2112 
Q 3559 1806 3559 1356 
Q 3559 666 3084 287 
Q 2609 -91 1734 -91 
Q 1441 -91 1130 -33 
Q 819 25 488 141 
L 488 750 
Q 750 597 1062 519 
Q 1375 441 1716 441 
Q 2309 441 2620 675 
Q 2931 909 2931 1356 
Q 2931 1769 2642 2001 
Q 2353 2234 1838 2234 
L 1294 2234 
L 1294 2753 
L 1863 2753 
Q 2328 2753 2575 2939 
Q 2822 3125 2822 3475 
Q 2822 3834 2567 4026 
Q 2313 4219 1838 4219 
Q 1578 4219 1281 4162 
Q 984 4106 628 3988 
L 628 4550 
Q 988 4650 1302 4700 
Q 1616 4750 1894 4750 
Q 2613 4750 3031 4423 
Q 3450 4097 3450 3541 
Q 3450 3153 3228 2886 
Q 3006 2619 2597 2516 
z
" transform="scale(0.015625)"/>
       </defs>
       <use xlink:href="#DejaVuSans-33"/>
      </g>
     </g>
    </g>
    <g id="xtick_5">
     <g id="line2d_9">
      <path d="M 173.4825 121.119375 
L 173.4825 10.239375 
" clip-path="url(#p1a6fe5fd72)" style="fill: none; stroke-dasharray: 3.7,1.6; stroke-dashoffset: 0; stroke: #b0b0b0"/>
     </g>
     <g id="line2d_10">
      <g>
       <use xlink:href="#mbdbc89c087" x="173.4825" y="121.119375" style="stroke: #000000; stroke-width: 0.8"/>
      </g>
     </g>
     <g id="text_5">
      <!-- 4 -->
      <g transform="translate(170.9375 134.198125) scale(0.08 -0.08)">
       <defs>
        <path id="DejaVuSans-34" d="M 2419 4116 
L 825 1625 
L 2419 1625 
L 2419 4116 
z
M 2253 4666 
L 3047 4666 
L 3047 1625 
L 3713 1625 
L 3713 1100 
L 3047 1100 
L 3047 0 
L 2419 0 
L 2419 1100 
L 313 1100 
L 313 1709 
L 2253 4666 
z
" transform="scale(0.015625)"/>
       </defs>
       <use xlink:href="#DejaVuSans-34"/>
      </g>
     </g>
    </g>
    <g id="xtick_6">
     <g id="line2d_11">
      <path d="M 206.9625 121.119375 
L 206.9625 10.239375 
" clip-path="url(#p1a6fe5fd72)" style="fill: none; stroke-dasharray: 3.7,1.6; stroke-dashoffset: 0; stroke: #b0b0b0"/>
     </g>
     <g id="line2d_12">
      <g>
       <use xlink:href="#mbdbc89c087" x="206.9625" y="121.119375" style="stroke: #000000; stroke-width: 0.8"/>
      </g>
     </g>
     <g id="text_6">
      <!-- 5 -->
      <g transform="translate(204.4175 134.198125) scale(0.08 -0.08)">
       <defs>
        <path id="DejaVuSans-35" d="M 691 4666 
L 3169 4666 
L 3169 4134 
L 1269 4134 
L 1269 2991 
Q 1406 3038 1543 3061 
Q 1681 3084 1819 3084 
Q 2600 3084 3056 2656 
Q 3513 2228 3513 1497 
Q 3513 744 3044 326 
Q 2575 -91 1722 -91 
Q 1428 -91 1123 -41 
Q 819 9 494 109 
L 494 744 
Q 775 591 1075 516 
Q 1375 441 1709 441 
Q 2250 441 2565 725 
Q 2881 1009 2881 1497 
Q 2881 1984 2565 2268 
Q 2250 2553 1709 2553 
Q 1456 2553 1204 2497 
Q 953 2441 691 2322 
L 691 4666 
z
" transform="scale(0.015625)"/>
       </defs>
       <use xlink:href="#DejaVuSans-35"/>
      </g>
     </g>
    </g>
    <g id="text_7">
     <!-- Observed ductility demand, $\mu_{dyn}$ -->
     <g transform="translate(58.5025 145.941875) scale(0.08 -0.08)">
      <defs>
       <path id="DejaVuSans-4f" d="M 2522 4238 
Q 1834 4238 1429 3725 
Q 1025 3213 1025 2328 
Q 1025 1447 1429 934 
Q 1834 422 2522 422 
Q 3209 422 3611 934 
Q 4013 1447 4013 2328 
Q 4013 3213 3611 3725 
Q 3209 4238 2522 4238 
z
M 2522 4750 
Q 3503 4750 4090 4092 
Q 4678 3434 4678 2328 
Q 4678 1225 4090 567 
Q 3503 -91 2522 -91 
Q 1538 -91 948 565 
Q 359 1222 359 2328 
Q 359 3434 948 4092 
Q 1538 4750 2522 4750 
z
" transform="scale(0.015625)"/>
       <path id="DejaVuSans-62" d="M 3116 1747 
Q 3116 2381 2855 2742 
Q 2594 3103 2138 3103 
Q 1681 3103 1420 2742 
Q 1159 2381 1159 1747 
Q 1159 1113 1420 752 
Q 1681 391 2138 391 
Q 2594 391 2855 752 
Q 3116 1113 3116 1747 
z
M 1159 2969 
Q 1341 3281 1617 3432 
Q 1894 3584 2278 3584 
Q 2916 3584 3314 3078 
Q 3713 2572 3713 1747 
Q 3713 922 3314 415 
Q 2916 -91 2278 -91 
Q 1894 -91 1617 61 
Q 1341 213 1159 525 
L 1159 0 
L 581 0 
L 581 4863 
L 1159 4863 
L 1159 2969 
z
" transform="scale(0.015625)"/>
       <path id="DejaVuSans-73" d="M 2834 3397 
L 2834 2853 
Q 2591 2978 2328 3040 
Q 2066 3103 1784 3103 
Q 1356 3103 1142 2972 
Q 928 2841 928 2578 
Q 928 2378 1081 2264 
Q 1234 2150 1697 2047 
L 1894 2003 
Q 2506 1872 2764 1633 
Q 3022 1394 3022 966 
Q 3022 478 2636 193 
Q 2250 -91 1575 -91 
Q 1294 -91 989 -36 
Q 684 19 347 128 
L 347 722 
Q 666 556 975 473 
Q 1284 391 1588 391 
Q 1994 391 2212 530 
Q 2431 669 2431 922 
Q 2431 1156 2273 1281 
Q 2116 1406 1581 1522 
L 1381 1569 
Q 847 1681 609 1914 
Q 372 2147 372 2553 
Q 372 3047 722 3315 
Q 1072 3584 1716 3584 
Q 2034 3584 2315 3537 
Q 2597 3491 2834 3397 
z
" transform="scale(0.015625)"/>
       <path id="DejaVuSans-65" d="M 3597 1894 
L 3597 1613 
L 953 1613 
Q 991 1019 1311 708 
Q 1631 397 2203 397 
Q 2534 397 2845 478 
Q 3156 559 3463 722 
L 3463 178 
Q 3153 47 2828 -22 
Q 2503 -91 2169 -91 
Q 1331 -91 842 396 
Q 353 884 353 1716 
Q 353 2575 817 3079 
Q 1281 3584 2069 3584 
Q 2775 3584 3186 3129 
Q 3597 2675 3597 1894 
z
M 3022 2063 
Q 3016 2534 2758 2815 
Q 2500 3097 2075 3097 
Q 1594 3097 1305 2825 
Q 1016 2553 972 2059 
L 3022 2063 
z
" transform="scale(0.015625)"/>
       <path id="DejaVuSans-72" d="M 2631 2963 
Q 2534 3019 2420 3045 
Q 2306 3072 2169 3072 
Q 1681 3072 1420 2755 
Q 1159 2438 1159 1844 
L 1159 0 
L 581 0 
L 581 3500 
L 1159 3500 
L 1159 2956 
Q 1341 3275 1631 3429 
Q 1922 3584 2338 3584 
Q 2397 3584 2469 3576 
Q 2541 3569 2628 3553 
L 2631 2963 
z
" transform="scale(0.015625)"/>
       <path id="DejaVuSans-76" d="M 191 3500 
L 800 3500 
L 1894 563 
L 2988 3500 
L 3597 3500 
L 2284 0 
L 1503 0 
L 191 3500 
z
" transform="scale(0.015625)"/>
       <path id="DejaVuSans-64" d="M 2906 2969 
L 2906 4863 
L 3481 4863 
L 3481 0 
L 2906 0 
L 2906 525 
Q 2725 213 2448 61 
Q 2172 -91 1784 -91 
Q 1150 -91 751 415 
Q 353 922 353 1747 
Q 353 2572 751 3078 
Q 1150 3584 1784 3584 
Q 2172 3584 2448 3432 
Q 2725 3281 2906 2969 
z
M 947 1747 
Q 947 1113 1208 752 
Q 1469 391 1925 391 
Q 2381 391 2643 752 
Q 2906 1113 2906 1747 
Q 2906 2381 2643 2742 
Q 2381 3103 1925 3103 
Q 1469 3103 1208 2742 
Q 947 2381 947 1747 
z
" transform="scale(0.015625)"/>
       <path id="DejaVuSans-20" transform="scale(0.015625)"/>
       <path id="DejaVuSans-75" d="M 544 1381 
L 544 3500 
L 1119 3500 
L 1119 1403 
Q 1119 906 1312 657 
Q 1506 409 1894 409 
Q 2359 409 2629 706 
Q 2900 1003 2900 1516 
L 2900 3500 
L 3475 3500 
L 3475 0 
L 2900 0 
L 2900 538 
Q 2691 219 2414 64 
Q 2138 -91 1772 -91 
Q 1169 -91 856 284 
Q 544 659 544 1381 
z
M 1991 3584 
L 1991 3584 
z
" transform="scale(0.015625)"/>
       <path id="DejaVuSans-63" d="M 3122 3366 
L 3122 2828 
Q 2878 2963 2633 3030 
Q 2388 3097 2138 3097 
Q 1578 3097 1268 2742 
Q 959 2388 959 1747 
Q 959 1106 1268 751 
Q 1578 397 2138 397 
Q 2388 397 2633 464 
Q 2878 531 3122 666 
L 3122 134 
Q 2881 22 2623 -34 
Q 2366 -91 2075 -91 
Q 1284 -91 818 406 
Q 353 903 353 1747 
Q 353 2603 823 3093 
Q 1294 3584 2113 3584 
Q 2378 3584 2631 3529 
Q 2884 3475 3122 3366 
z
" transform="scale(0.015625)"/>
       <path id="DejaVuSans-74" d="M 1172 4494 
L 1172 3500 
L 2356 3500 
L 2356 3053 
L 1172 3053 
L 1172 1153 
Q 1172 725 1289 603 
Q 1406 481 1766 481 
L 2356 481 
L 2356 0 
L 1766 0 
Q 1100 0 847 248 
Q 594 497 594 1153 
L 594 3053 
L 172 3053 
L 172 3500 
L 594 3500 
L 594 4494 
L 1172 4494 
z
" transform="scale(0.015625)"/>
       <path id="DejaVuSans-69" d="M 603 3500 
L 1178 3500 
L 1178 0 
L 603 0 
L 603 3500 
z
M 603 4863 
L 1178 4863 
L 1178 4134 
L 603 4134 
L 603 4863 
z
" transform="scale(0.015625)"/>
       <path id="DejaVuSans-6c" d="M 603 4863 
L 1178 4863 
L 1178 0 
L 603 0 
L 603 4863 
z
" transform="scale(0.015625)"/>
       <path id="DejaVuSans-79" d="M 2059 -325 
Q 1816 -950 1584 -1140 
Q 1353 -1331 966 -1331 
L 506 -1331 
L 506 -850 
L 844 -850 
Q 1081 -850 1212 -737 
Q 1344 -625 1503 -206 
L 1606 56 
L 191 3500 
L 800 3500 
L 1894 763 
L 2988 3500 
L 3597 3500 
L 2059 -325 
z
" transform="scale(0.015625)"/>
       <path id="DejaVuSans-6d" d="M 3328 2828 
Q 3544 3216 3844 3400 
Q 4144 3584 4550 3584 
Q 5097 3584 5394 3201 
Q 5691 2819 5691 2113 
L 5691 0 
L 5113 0 
L 5113 2094 
Q 5113 2597 4934 2840 
Q 4756 3084 4391 3084 
Q 3944 3084 3684 2787 
Q 3425 2491 3425 1978 
L 3425 0 
L 2847 0 
L 2847 2094 
Q 2847 2600 2669 2842 
Q 2491 3084 2119 3084 
Q 1678 3084 1418 2786 
Q 1159 2488 1159 1978 
L 1159 0 
L 581 0 
L 581 3500 
L 1159 3500 
L 1159 2956 
Q 1356 3278 1631 3431 
Q 1906 3584 2284 3584 
Q 2666 3584 2933 3390 
Q 3200 3197 3328 2828 
z
" transform="scale(0.015625)"/>
       <path id="DejaVuSans-61" d="M 2194 1759 
Q 1497 1759 1228 1600 
Q 959 1441 959 1056 
Q 959 750 1161 570 
Q 1363 391 1709 391 
Q 2188 391 2477 730 
Q 2766 1069 2766 1631 
L 2766 1759 
L 2194 1759 
z
M 3341 1997 
L 3341 0 
L 2766 0 
L 2766 531 
Q 2569 213 2275 61 
Q 1981 -91 1556 -91 
Q 1019 -91 701 211 
Q 384 513 384 1019 
Q 384 1609 779 1909 
Q 1175 2209 1959 2209 
L 2766 2209 
L 2766 2266 
Q 2766 2663 2505 2880 
Q 2244 3097 1772 3097 
Q 1472 3097 1187 3025 
Q 903 2953 641 2809 
L 641 3341 
Q 956 3463 1253 3523 
Q 1550 3584 1831 3584 
Q 2591 3584 2966 3190 
Q 3341 2797 3341 1997 
z
" transform="scale(0.015625)"/>
       <path id="DejaVuSans-6e" d="M 3513 2113 
L 3513 0 
L 2938 0 
L 2938 2094 
Q 2938 2591 2744 2837 
Q 2550 3084 2163 3084 
Q 1697 3084 1428 2787 
Q 1159 2491 1159 1978 
L 1159 0 
L 581 0 
L 581 3500 
L 1159 3500 
L 1159 2956 
Q 1366 3272 1645 3428 
Q 1925 3584 2291 3584 
Q 2894 3584 3203 3211 
Q 3513 2838 3513 2113 
z
" transform="scale(0.015625)"/>
       <path id="DejaVuSans-2c" d="M 750 794 
L 1409 794 
L 1409 256 
L 897 -744 
L 494 -744 
L 750 256 
L 750 794 
z
" transform="scale(0.015625)"/>
       <path id="DejaVuSans-Oblique-3bc" d="M -84 -1331 
L 856 3500 
L 1434 3500 
L 1009 1322 
Q 997 1256 987 1175 
Q 978 1094 978 1013 
Q 978 722 1161 565 
Q 1344 409 1684 409 
Q 2147 409 2431 671 
Q 2716 934 2816 1459 
L 3213 3500 
L 3788 3500 
L 3266 809 
Q 3253 750 3248 706 
Q 3244 663 3244 628 
Q 3244 531 3283 486 
Q 3322 441 3406 441 
Q 3438 441 3492 456 
Q 3547 472 3647 513 
L 3559 50 
Q 3422 -19 3297 -55 
Q 3172 -91 3053 -91 
Q 2847 -91 2730 40 
Q 2613 172 2613 403 
Q 2438 153 2195 31 
Q 1953 -91 1625 -91 
Q 1334 -91 1117 43 
Q 900 178 831 397 
L 494 -1331 
L -84 -1331 
z
" transform="scale(0.015625)"/>
       <path id="DejaVuSans-Oblique-64" d="M 2675 525 
Q 2444 222 2128 65 
Q 1813 -91 1428 -91 
Q 903 -91 598 267 
Q 294 625 294 1247 
Q 294 1766 478 2236 
Q 663 2706 1013 3078 
Q 1244 3325 1534 3454 
Q 1825 3584 2144 3584 
Q 2481 3584 2739 3421 
Q 2997 3259 3138 2956 
L 3513 4863 
L 4091 4863 
L 3144 0 
L 2566 0 
L 2675 525 
z
M 891 1350 
Q 891 897 1095 644 
Q 1300 391 1663 391 
Q 1931 391 2161 520 
Q 2391 650 2566 903 
Q 2750 1166 2856 1509 
Q 2963 1853 2963 2188 
Q 2963 2622 2758 2865 
Q 2553 3109 2194 3109 
Q 1922 3109 1687 2981 
Q 1453 2853 1288 2613 
Q 1106 2353 998 2009 
Q 891 1666 891 1350 
z
" transform="scale(0.015625)"/>
       <path id="DejaVuSans-Oblique-79" d="M 1588 -325 
Q 1188 -997 936 -1164 
Q 684 -1331 294 -1331 
L -159 -1331 
L -63 -850 
L 269 -850 
Q 509 -850 678 -719 
Q 847 -588 1056 -206 
L 1234 128 
L 459 3500 
L 1069 3500 
L 1650 819 
L 3256 3500 
L 3859 3500 
L 1588 -325 
z
" transform="scale(0.015625)"/>
       <path id="DejaVuSans-Oblique-6e" d="M 3566 2113 
L 3156 0 
L 2578 0 
L 2988 2091 
Q 3016 2238 3031 2350 
Q 3047 2463 3047 2528 
Q 3047 2791 2881 2937 
Q 2716 3084 2419 3084 
Q 1956 3084 1622 2776 
Q 1288 2469 1184 1941 
L 800 0 
L 225 0 
L 903 3500 
L 1478 3500 
L 1363 2950 
Q 1603 3253 1940 3418 
Q 2278 3584 2650 3584 
Q 3113 3584 3367 3334 
Q 3622 3084 3622 2631 
Q 3622 2519 3608 2391 
Q 3594 2263 3566 2113 
z
" transform="scale(0.015625)"/>
      </defs>
      <use xlink:href="#DejaVuSans-4f" transform="translate(0 0.015625)"/>
      <use xlink:href="#DejaVuSans-62" transform="translate(78.710938 0.015625)"/>
      <use xlink:href="#DejaVuSans-73" transform="translate(142.1875 0.015625)"/>
      <use xlink:href="#DejaVuSans-65" transform="translate(194.287109 0.015625)"/>
      <use xlink:href="#DejaVuSans-72" transform="translate(255.810547 0.015625)"/>
      <use xlink:href="#DejaVuSans-76" transform="translate(296.923828 0.015625)"/>
      <use xlink:href="#DejaVuSans-65" transform="translate(356.103516 0.015625)"/>
      <use xlink:href="#DejaVuSans-64" transform="translate(417.626953 0.015625)"/>
      <use xlink:href="#DejaVuSans-20" transform="translate(481.103516 0.015625)"/>
      <use xlink:href="#DejaVuSans-64" transform="translate(512.890625 0.015625)"/>
      <use xlink:href="#DejaVuSans-75" transform="translate(576.367188 0.015625)"/>
      <use xlink:href="#DejaVuSans-63" transform="translate(639.746094 0.015625)"/>
      <use xlink:href="#DejaVuSans-74" transform="translate(694.726562 0.015625)"/>
      <use xlink:href="#DejaVuSans-69" transform="translate(733.935547 0.015625)"/>
      <use xlink:href="#DejaVuSans-6c" transform="translate(761.71875 0.015625)"/>
      <use xlink:href="#DejaVuSans-69" transform="translate(789.501953 0.015625)"/>
      <use xlink:href="#DejaVuSans-74" transform="translate(817.285156 0.015625)"/>
      <use xlink:href="#DejaVuSans-79" transform="translate(856.494141 0.015625)"/>
      <use xlink:href="#DejaVuSans-20" transform="translate(915.673828 0.015625)"/>
      <use xlink:href="#DejaVuSans-64" transform="translate(947.460938 0.015625)"/>
      <use xlink:href="#DejaVuSans-65" transform="translate(1010.9375 0.015625)"/>
      <use xlink:href="#DejaVuSans-6d" transform="translate(1072.460938 0.015625)"/>
      <use xlink:href="#DejaVuSans-61" transform="translate(1169.873047 0.015625)"/>
      <use xlink:href="#DejaVuSans-6e" transform="translate(1231.152344 0.015625)"/>
      <use xlink:href="#DejaVuSans-64" transform="translate(1294.53125 0.015625)"/>
      <use xlink:href="#DejaVuSans-2c" transform="translate(1358.007812 0.015625)"/>
      <use xlink:href="#DejaVuSans-20" transform="translate(1389.794922 0.015625)"/>
      <use xlink:href="#DejaVuSans-Oblique-3bc" transform="translate(1421.582031 0.015625)"/>
      <use xlink:href="#DejaVuSans-Oblique-64" transform="translate(1485.205078 -16.390625) scale(0.7)"/>
      <use xlink:href="#DejaVuSans-Oblique-79" transform="translate(1529.638672 -16.390625) scale(0.7)"/>
      <use xlink:href="#DejaVuSans-Oblique-6e" transform="translate(1571.064453 -16.390625) scale(0.7)"/>
     </g>
    </g>
   </g>
   <g id="matplotlib.axis_2">
    <g id="ytick_1">
     <g id="line2d_13">
      <path d="M 39.5625 121.119375 
L 206.9625 121.119375 
" clip-path="url(#p1a6fe5fd72)" style="fill: none; stroke-dasharray: 3.7,1.6; stroke-dashoffset: 0; stroke: #b0b0b0"/>
     </g>
     <g id="line2d_14">
      <defs>
       <path id="mff7fd4d8e2" d="M 0 0 
L -3.5 0 
" style="stroke: #000000; stroke-width: 0.8"/>
      </defs>
      <g>
       <use xlink:href="#mff7fd4d8e2" x="39.5625" y="121.119375" style="stroke: #000000; stroke-width: 0.8"/>
      </g>
     </g>
     <g id="text_8">
      <!-- 0.0 -->
      <g transform="translate(19.84 124.15875) scale(0.08 -0.08)">
       <defs>
        <path id="DejaVuSans-2e" d="M 684 794 
L 1344 794 
L 1344 0 
L 684 0 
L 684 794 
z
" transform="scale(0.015625)"/>
       </defs>
       <use xlink:href="#DejaVuSans-30"/>
       <use xlink:href="#DejaVuSans-2e" x="63.623047"/>
       <use xlink:href="#DejaVuSans-30" x="95.410156"/>
      </g>
     </g>
    </g>
    <g id="ytick_2">
     <g id="line2d_15">
      <path d="M 39.5625 93.399375 
L 206.9625 93.399375 
" clip-path="url(#p1a6fe5fd72)" style="fill: none; stroke-dasharray: 3.7,1.6; stroke-dashoffset: 0; stroke: #b0b0b0"/>
     </g>
     <g id="line2d_16">
      <g>
       <use xlink:href="#mff7fd4d8e2" x="39.5625" y="93.399375" style="stroke: #000000; stroke-width: 0.8"/>
      </g>
     </g>
     <g id="text_9">
      <!-- 0.1 -->
      <g transform="translate(19.84 96.43875) scale(0.08 -0.08)">
       <use xlink:href="#DejaVuSans-30"/>
       <use xlink:href="#DejaVuSans-2e" x="63.623047"/>
       <use xlink:href="#DejaVuSans-31" x="95.410156"/>
      </g>
     </g>
    </g>
    <g id="ytick_3">
     <g id="line2d_17">
      <path d="M 39.5625 65.679375 
L 206.9625 65.679375 
" clip-path="url(#p1a6fe5fd72)" style="fill: none; stroke-dasharray: 3.7,1.6; stroke-dashoffset: 0; stroke: #b0b0b0"/>
     </g>
     <g id="line2d_18">
      <g>
       <use xlink:href="#mff7fd4d8e2" x="39.5625" y="65.679375" style="stroke: #000000; stroke-width: 0.8"/>
      </g>
     </g>
     <g id="text_10">
      <!-- 0.2 -->
      <g transform="translate(19.84 68.71875) scale(0.08 -0.08)">
       <use xlink:href="#DejaVuSans-30"/>
       <use xlink:href="#DejaVuSans-2e" x="63.623047"/>
       <use xlink:href="#DejaVuSans-32" x="95.410156"/>
      </g>
     </g>
    </g>
    <g id="ytick_4">
     <g id="line2d_19">
      <path d="M 39.5625 37.959375 
L 206.9625 37.959375 
" clip-path="url(#p1a6fe5fd72)" style="fill: none; stroke-dasharray: 3.7,1.6; stroke-dashoffset: 0; stroke: #b0b0b0"/>
     </g>
     <g id="line2d_20">
      <g>
       <use xlink:href="#mff7fd4d8e2" x="39.5625" y="37.959375" style="stroke: #000000; stroke-width: 0.8"/>
      </g>
     </g>
     <g id="text_11">
      <!-- 0.3 -->
      <g transform="translate(19.84 40.99875) scale(0.08 -0.08)">
       <use xlink:href="#DejaVuSans-30"/>
       <use xlink:href="#DejaVuSans-2e" x="63.623047"/>
       <use xlink:href="#DejaVuSans-33" x="95.410156"/>
      </g>
     </g>
    </g>
    <g id="ytick_5">
     <g id="line2d_21">
      <path d="M 39.5625 10.239375 
L 206.9625 10.239375 
" clip-path="url(#p1a6fe5fd72)" style="fill: none; stroke-dasharray: 3.7,1.6; stroke-dashoffset: 0; stroke: #b0b0b0"/>
     </g>
     <g id="line2d_22">
      <g>
       <use xlink:href="#mff7fd4d8e2" x="39.5625" y="10.239375" style="stroke: #000000; stroke-width: 0.8"/>
      </g>
     </g>
     <g id="text_12">
      <!-- 0.4 -->
      <g transform="translate(19.84 13.27875) scale(0.08 -0.08)">
       <use xlink:href="#DejaVuSans-30"/>
       <use xlink:href="#DejaVuSans-2e" x="63.623047"/>
       <use xlink:href="#DejaVuSans-34" x="95.410156"/>
      </g>
     </g>
    </g>
    <g id="text_13">
     <!-- Standard deviation, $\beta_{\rho_2}$ -->
     <g transform="translate(13.36 112.119375) rotate(-90) scale(0.08 -0.08)">
      <defs>
       <path id="DejaVuSans-53" d="M 3425 4513 
L 3425 3897 
Q 3066 4069 2747 4153 
Q 2428 4238 2131 4238 
Q 1616 4238 1336 4038 
Q 1056 3838 1056 3469 
Q 1056 3159 1242 3001 
Q 1428 2844 1947 2747 
L 2328 2669 
Q 3034 2534 3370 2195 
Q 3706 1856 3706 1288 
Q 3706 609 3251 259 
Q 2797 -91 1919 -91 
Q 1588 -91 1214 -16 
Q 841 59 441 206 
L 441 856 
Q 825 641 1194 531 
Q 1563 422 1919 422 
Q 2459 422 2753 634 
Q 3047 847 3047 1241 
Q 3047 1584 2836 1778 
Q 2625 1972 2144 2069 
L 1759 2144 
Q 1053 2284 737 2584 
Q 422 2884 422 3419 
Q 422 4038 858 4394 
Q 1294 4750 2059 4750 
Q 2388 4750 2728 4690 
Q 3069 4631 3425 4513 
z
" transform="scale(0.015625)"/>
       <path id="DejaVuSans-6f" d="M 1959 3097 
Q 1497 3097 1228 2736 
Q 959 2375 959 1747 
Q 959 1119 1226 758 
Q 1494 397 1959 397 
Q 2419 397 2687 759 
Q 2956 1122 2956 1747 
Q 2956 2369 2687 2733 
Q 2419 3097 1959 3097 
z
M 1959 3584 
Q 2709 3584 3137 3096 
Q 3566 2609 3566 1747 
Q 3566 888 3137 398 
Q 2709 -91 1959 -91 
Q 1206 -91 779 398 
Q 353 888 353 1747 
Q 353 2609 779 3096 
Q 1206 3584 1959 3584 
z
" transform="scale(0.015625)"/>
       <path id="DejaVuSans-Oblique-3b2" d="M 872 216 
L 572 -1331 
L -6 -1331 
L 928 3478 
Q 1206 4903 2538 4903 
Q 3888 4903 3659 3700 
Q 3503 2844 2894 2531 
Q 3713 2250 3553 1416 
Q 3272 -69 1759 -66 
Q 1097 -63 872 216 
z
M 1019 966 
Q 1259 422 1875 425 
Q 2775 425 2966 1406 
Q 3138 2288 1675 2219 
L 1778 2750 
Q 2909 2731 3106 3750 
Q 3241 4438 2509 4434 
Q 1691 4434 1503 3459 
L 1019 966 
z
" transform="scale(0.015625)"/>
       <path id="DejaVuSans-Oblique-3c1" d="M 1203 2875 
Q 1453 3194 1981 3475 
Q 2188 3584 2756 3584 
Q 3394 3584 3694 3078 
Q 3994 2572 3834 1747 
Q 3672 922 3175 415 
Q 2678 -91 2041 -91 
Q 1656 -91 1409 63 
Q 1163 213 1044 525 
L 681 -1331 
L 103 -1331 
L 697 1716 
Q 838 2438 1203 2875 
z
M 3238 1747 
Q 3359 2381 3169 2744 
Q 2978 3103 2522 3103 
Q 2066 3103 1734 2744 
Q 1403 2381 1281 1747 
Q 1156 1113 1347 750 
Q 1538 391 1994 391 
Q 2450 391 2781 750 
Q 3113 1113 3238 1747 
z
" transform="scale(0.015625)"/>
      </defs>
      <use xlink:href="#DejaVuSans-53" transform="translate(0 0.390625)"/>
      <use xlink:href="#DejaVuSans-74" transform="translate(63.476562 0.390625)"/>
      <use xlink:href="#DejaVuSans-61" transform="translate(102.685547 0.390625)"/>
      <use xlink:href="#DejaVuSans-6e" transform="translate(163.964844 0.390625)"/>
      <use xlink:href="#DejaVuSans-64" transform="translate(227.34375 0.390625)"/>
      <use xlink:href="#DejaVuSans-61" transform="translate(290.820312 0.390625)"/>
      <use xlink:href="#DejaVuSans-72" transform="translate(352.099609 0.390625)"/>
      <use xlink:href="#DejaVuSans-64" transform="translate(393.212891 0.390625)"/>
      <use xlink:href="#DejaVuSans-20" transform="translate(456.689453 0.390625)"/>
      <use xlink:href="#DejaVuSans-64" transform="translate(488.476562 0.390625)"/>
      <use xlink:href="#DejaVuSans-65" transform="translate(551.953125 0.390625)"/>
      <use xlink:href="#DejaVuSans-76" transform="translate(613.476562 0.390625)"/>
      <use xlink:href="#DejaVuSans-69" transform="translate(672.65625 0.390625)"/>
      <use xlink:href="#DejaVuSans-61" transform="translate(700.439453 0.390625)"/>
      <use xlink:href="#DejaVuSans-74" transform="translate(761.71875 0.390625)"/>
      <use xlink:href="#DejaVuSans-69" transform="translate(800.927734 0.390625)"/>
      <use xlink:href="#DejaVuSans-6f" transform="translate(828.710938 0.390625)"/>
      <use xlink:href="#DejaVuSans-6e" transform="translate(889.892578 0.390625)"/>
      <use xlink:href="#DejaVuSans-2c" transform="translate(953.271484 0.390625)"/>
      <use xlink:href="#DejaVuSans-20" transform="translate(985.058594 0.390625)"/>
      <use xlink:href="#DejaVuSans-Oblique-3b2" transform="translate(1016.845703 0.390625)"/>
      <use xlink:href="#DejaVuSans-Oblique-3c1" transform="translate(1080.664062 -16.015625) scale(0.7)"/>
      <use xlink:href="#DejaVuSans-32" transform="translate(1125.097656 -27.5) scale(0.49)"/>
     </g>
    </g>
   </g>
   <g id="line2d_23">
    <path d="M 60.4875 84.153468 
L 68.8575 90.376191 
L 77.2275 91.459324 
L 85.5975 92.889372 
L 93.9675 88.122412 
L 102.3375 85.401871 
L 110.7075 100.512022 
L 119.0775 91.601209 
L 127.4475 66.355251 
L 135.8175 121.119375 
L 144.1875 108.351497 
L 152.5575 118.55571 
" clip-path="url(#p1a6fe5fd72)" style="fill: none; stroke: #bdbebf; stroke-width: 1.5; stroke-linecap: square"/>
   </g>
   <g id="line2d_24">
    <path d="M 60.4875 80.934765 
L 68.8575 87.856725 
L 77.2275 93.300631 
L 85.5975 92.518139 
L 93.9675 86.164227 
L 102.3375 87.228483 
L 110.7075 89.766203 
L 119.0775 88.737198 
L 127.4475 85.686318 
L 135.8175 86.256335 
L 144.1875 78.909275 
L 152.5575 83.662645 
L 160.9275 69.037323 
L 169.2975 69.429484 
L 177.6675 64.1338 
L 186.0375 75.623584 
M 202.7775 111.943019 
" clip-path="url(#p1a6fe5fd72)" style="fill: none; stroke: #bdbebf; stroke-width: 1.5; stroke-linecap: square"/>
   </g>
   <g id="line2d_25">
    <path d="M 60.4875 84.240916 
L 68.8575 87.592606 
L 77.2275 91.669463 
L 85.5975 93.831802 
L 93.9675 87.300267 
L 102.3375 88.366839 
L 110.7075 90.423959 
L 119.0775 87.371452 
L 127.4475 86.542184 
L 135.8175 79.385284 
L 144.1875 63.67501 
L 152.5575 79.512156 
L 160.9275 92.43295 
L 169.2975 65.31866 
L 177.6675 68.543327 
L 186.0375 51.999877 
L 194.4075 63.792222 
L 202.7775 82.269022 
" clip-path="url(#p1a6fe5fd72)" style="fill: none; stroke: #bdbebf; stroke-width: 1.5; stroke-linecap: square"/>
   </g>
   <g id="line2d_26">
    <path d="M 60.4875 84.504955 
L 68.8575 86.829279 
L 77.2275 95.348823 
L 85.5975 90.895835 
L 93.9675 91.584861 
L 102.3375 90.926165 
L 110.7075 83.108633 
L 119.0775 97.132699 
L 127.4475 89.618711 
L 135.8175 79.405121 
L 144.1875 67.559662 
L 152.5575 59.678031 
L 160.9275 85.189543 
L 169.2975 74.506938 
L 177.6675 85.848695 
L 186.0375 82.141928 
L 194.4075 69.307291 
L 202.7775 91.311219 
" clip-path="url(#p1a6fe5fd72)" style="fill: none; stroke: #bdbebf; stroke-width: 1.5; stroke-linecap: square"/>
   </g>
   <g id="line2d_27">
    <path d="M 60.4875 63.053795 
L 68.8575 67.349331 
L 77.2275 69.295073 
L 85.5975 77.986727 
L 93.9675 81.914016 
L 102.3375 79.828268 
L 110.7075 81.850859 
L 119.0775 86.99821 
L 127.4475 79.879398 
L 135.8175 79.155018 
L 144.1875 98.311078 
L 152.5575 22.695287 
L 160.9275 121.119375 
M 177.6675 121.119375 
L 186.0375 121.119375 
M 202.7775 121.119375 
" clip-path="url(#p1a6fe5fd72)" style="fill: none; stroke: #bdbebf; stroke-width: 1.5; stroke-linecap: square"/>
   </g>
   <g id="line2d_28">
    <path d="M 60.4875 64.689272 
L 68.8575 69.722207 
L 77.2275 71.51011 
L 85.5975 73.800422 
L 93.9675 81.434882 
L 102.3375 80.994946 
L 110.7075 80.865141 
L 119.0775 86.250711 
L 127.4475 74.299053 
L 135.8175 74.499897 
L 144.1875 60.501048 
L 152.5575 63.958335 
L 160.9275 72.9777 
L 169.2975 73.174376 
L 177.6675 66.012554 
L 186.0375 66.813535 
L 194.4075 56.930414 
L 202.7775 56.012082 
" clip-path="url(#p1a6fe5fd72)" style="fill: none; stroke: #bdbebf; stroke-width: 1.5; stroke-linecap: square"/>
   </g>
   <g id="line2d_29">
    <path d="M 60.4875 66.452115 
L 68.8575 69.288949 
L 77.2275 71.277332 
L 85.5975 79.937253 
L 93.9675 84.924253 
L 102.3375 79.03536 
L 110.7075 80.579682 
L 119.0775 75.879176 
L 127.4475 74.149843 
L 135.8175 77.335147 
L 144.1875 79.346527 
L 152.5575 73.515019 
L 160.9275 63.708014 
L 169.2975 61.780162 
L 177.6675 65.971577 
L 186.0375 81.890125 
L 194.4075 57.872207 
L 202.7775 50.820816 
" clip-path="url(#p1a6fe5fd72)" style="fill: none; stroke: #bdbebf; stroke-width: 1.5; stroke-linecap: square"/>
   </g>
   <g id="line2d_30">
    <path d="M 60.4875 64.165427 
L 68.8575 69.113458 
L 77.2275 71.460344 
L 85.5975 76.248782 
L 93.9675 80.331531 
L 102.3375 83.511512 
L 110.7075 77.659039 
L 119.0775 76.142183 
L 127.4475 73.182161 
L 135.8175 69.155686 
L 144.1875 70.850732 
L 152.5575 71.186464 
L 160.9275 70.179934 
L 169.2975 64.871945 
L 177.6675 54.633871 
L 186.0375 65.545462 
L 194.4075 61.396268 
L 202.7775 62.93953 
" clip-path="url(#p1a6fe5fd72)" style="fill: none; stroke: #bdbebf; stroke-width: 1.5; stroke-linecap: square"/>
   </g>
   <g id="line2d_31">
    <path d="M 60.4875 47.582213 
L 68.8575 52.400867 
L 77.2275 51.65124 
L 85.5975 60.40074 
L 93.9675 65.703133 
L 102.3375 70.246912 
L 110.7075 68.291358 
L 119.0775 67.37465 
L 127.4475 66.258422 
L 135.8175 54.1537 
L 144.1875 64.425165 
L 152.5575 45.460227 
L 160.9275 83.837302 
L 169.2975 56.142985 
L 177.6675 47.011024 
L 186.0375 74.565823 
L 194.4075 92.306564 
L 202.7775 121.119375 
" clip-path="url(#p1a6fe5fd72)" style="fill: none; stroke: #bdbebf; stroke-width: 1.5; stroke-linecap: square"/>
   </g>
   <g id="line2d_32">
    <path d="M 60.4875 50.367349 
L 68.8575 54.203979 
L 77.2275 58.938106 
L 85.5975 60.966989 
L 93.9675 62.713521 
L 102.3375 68.007433 
L 110.7075 64.96013 
L 119.0775 60.971665 
L 127.4475 63.017885 
L 135.8175 62.659599 
L 144.1875 57.929112 
L 152.5575 62.231124 
L 160.9275 51.769483 
L 169.2975 52.962929 
L 177.6675 56.761201 
L 186.0375 55.824579 
L 194.4075 53.842048 
L 202.7775 51.207701 
" clip-path="url(#p1a6fe5fd72)" style="fill: none; stroke: #bdbebf; stroke-width: 1.5; stroke-linecap: square"/>
   </g>
   <g id="line2d_33">
    <path d="M 60.4875 47.886227 
L 68.8575 55.290826 
L 77.2275 56.494124 
L 85.5975 61.179735 
L 93.9675 67.771291 
L 102.3375 67.78767 
L 110.7075 65.101761 
L 119.0775 64.12663 
L 127.4475 62.170732 
L 135.8175 61.218861 
L 144.1875 61.402397 
L 152.5575 59.005211 
L 160.9275 53.707649 
L 169.2975 54.059476 
L 177.6675 53.026016 
L 186.0375 53.87568 
L 194.4075 52.81358 
L 202.7775 54.954672 
" clip-path="url(#p1a6fe5fd72)" style="fill: none; stroke: #bdbebf; stroke-width: 1.5; stroke-linecap: square"/>
   </g>
   <g id="line2d_34">
    <path d="M 60.4875 50.884377 
L 68.8575 52.339424 
L 77.2275 54.710062 
L 85.5975 62.700946 
L 93.9675 66.958441 
L 102.3375 66.829626 
L 110.7075 64.389814 
L 119.0775 63.743006 
L 127.4475 62.010314 
L 135.8175 57.959078 
L 144.1875 61.696838 
L 152.5575 61.099072 
L 160.9275 57.17635 
L 169.2975 53.814127 
L 177.6675 57.355653 
L 186.0375 58.36578 
L 194.4075 56.462009 
L 202.7775 55.172122 
" clip-path="url(#p1a6fe5fd72)" style="fill: none; stroke: #bdbebf; stroke-width: 1.5; stroke-linecap: square"/>
   </g>
   <g id="line2d_35">
    <path d="M 60.4875 44.917179 
L 68.8575 49.828973 
L 77.2275 49.98534 
L 85.5975 54.83457 
L 93.9675 53.007762 
L 102.3375 59.188986 
L 110.7075 58.806793 
L 119.0775 54.544289 
L 127.4475 59.546845 
L 135.8175 53.877786 
L 144.1875 57.101516 
L 152.5575 54.76569 
L 160.9275 39.957029 
L 169.2975 49.273473 
L 177.6675 48.614134 
L 186.0375 42.543153 
L 194.4075 33.238656 
L 202.7775 121.119375 
" clip-path="url(#p1a6fe5fd72)" style="fill: none; stroke: #bdbebf; stroke-width: 1.5; stroke-linecap: square"/>
   </g>
   <g id="line2d_36">
    <path d="M 60.4875 44.112042 
L 68.8575 49.059319 
L 77.2275 50.271242 
L 85.5975 52.521884 
L 93.9675 57.509535 
L 102.3375 58.835902 
L 110.7075 56.511971 
L 119.0775 60.839231 
L 127.4475 58.484358 
L 135.8175 54.502979 
L 144.1875 57.755364 
L 152.5575 52.026829 
L 160.9275 52.613625 
L 169.2975 57.164416 
L 177.6675 53.414917 
L 186.0375 58.631014 
L 194.4075 48.890234 
L 202.7775 52.841912 
" clip-path="url(#p1a6fe5fd72)" style="fill: none; stroke: #bdbebf; stroke-width: 1.5; stroke-linecap: square"/>
   </g>
   <g id="line2d_37">
    <path d="M 60.4875 45.824097 
L 68.8575 42.909073 
L 77.2275 50.41928 
L 85.5975 55.904596 
L 93.9675 57.574833 
L 102.3375 57.097743 
L 110.7075 60.352867 
L 119.0775 59.279197 
L 127.4475 56.469025 
L 135.8175 54.03776 
L 144.1875 60.757413 
L 152.5575 54.026979 
L 160.9275 54.578352 
L 169.2975 53.918849 
L 177.6675 51.984518 
L 186.0375 55.461419 
L 194.4075 51.817977 
L 202.7775 56.1808 
" clip-path="url(#p1a6fe5fd72)" style="fill: none; stroke: #bdbebf; stroke-width: 1.5; stroke-linecap: square"/>
   </g>
   <g id="line2d_38">
    <path d="M 60.4875 46.362239 
L 68.8575 51.532891 
L 77.2275 50.496013 
L 85.5975 49.442574 
L 93.9675 57.530656 
L 102.3375 61.119506 
L 110.7075 57.050722 
L 119.0775 55.066205 
L 127.4475 60.407162 
L 135.8175 55.133083 
L 144.1875 53.976332 
L 152.5575 54.261716 
L 160.9275 55.778836 
L 169.2975 57.519498 
L 177.6675 54.551764 
L 186.0375 51.732399 
L 194.4075 55.544293 
L 202.7775 50.906983 
" clip-path="url(#p1a6fe5fd72)" style="fill: none; stroke: #bdbebf; stroke-width: 1.5; stroke-linecap: square"/>
   </g>
   <g id="line2d_39">
    <path d="M 60.4875 41.671345 
L 68.8575 42.312851 
L 77.2275 44.779278 
L 85.5975 53.006776 
L 93.9675 54.91662 
L 102.3375 59.56503 
L 110.7075 56.15432 
L 119.0775 58.633068 
L 127.4475 57.444084 
L 135.8175 52.067991 
L 144.1875 55.353546 
L 152.5575 57.160661 
L 160.9275 51.118578 
L 169.2975 52.410679 
L 177.6675 57.845841 
L 186.0375 51.111231 
L 194.4075 44.073012 
L 202.7775 53.20831 
" clip-path="url(#p1a6fe5fd72)" style="fill: none; stroke: #bdbebf; stroke-width: 1.5; stroke-linecap: square"/>
   </g>
   <g id="line2d_40">
    <path d="M 60.4875 38.519924 
L 68.8575 46.704316 
L 77.2275 45.64414 
L 85.5975 52.634385 
L 93.9675 55.657089 
L 102.3375 54.797692 
L 110.7075 57.067099 
L 119.0775 58.516127 
L 127.4475 57.460855 
L 135.8175 56.903288 
L 144.1875 55.397645 
L 152.5575 56.619968 
L 160.9275 57.198644 
L 169.2975 49.400959 
L 177.6675 51.694791 
L 186.0375 54.321545 
L 194.4075 57.508621 
L 202.7775 48.815336 
" clip-path="url(#p1a6fe5fd72)" style="fill: none; stroke: #bdbebf; stroke-width: 1.5; stroke-linecap: square"/>
   </g>
   <g id="line2d_41">
    <path d="M 60.4875 41.136566 
L 68.8575 47.188671 
L 77.2275 44.224586 
L 85.5975 49.330029 
L 93.9675 55.736799 
L 102.3375 55.190189 
L 110.7075 58.018256 
L 119.0775 59.171721 
L 127.4475 54.973808 
L 135.8175 56.102775 
L 144.1875 53.084438 
L 152.5575 53.533216 
L 160.9275 55.746287 
L 169.2975 52.177893 
L 177.6675 48.199925 
L 186.0375 53.975597 
L 194.4075 57.18408 
L 202.7775 51.492668 
" clip-path="url(#p1a6fe5fd72)" style="fill: none; stroke: #bdbebf; stroke-width: 1.5; stroke-linecap: square"/>
   </g>
   <g id="line2d_42">
    <path d="M 60.4875 41.551471 
L 68.8575 44.328028 
L 77.2275 42.209692 
L 85.5975 52.657948 
L 93.9675 56.601357 
L 102.3375 59.762542 
L 110.7075 56.150366 
L 119.0775 58.059176 
L 127.4475 57.705815 
L 135.8175 54.853995 
L 144.1875 52.241326 
L 152.5575 53.203752 
L 160.9275 57.416086 
L 169.2975 52.683348 
L 177.6675 48.12325 
L 186.0375 51.869116 
L 194.4075 52.354181 
L 202.7775 51.946164 
" clip-path="url(#p1a6fe5fd72)" style="fill: none; stroke: #bdbebf; stroke-width: 1.5; stroke-linecap: square"/>
   </g>
   <g id="line2d_43">
    <path d="M 60.4875 43.641582 
L 68.8575 44.57178 
L 77.2275 44.403666 
L 85.5975 53.295145 
L 93.9675 53.753805 
L 102.3375 53.769189 
L 110.7075 55.325723 
L 119.0775 56.066832 
L 127.4475 48.416237 
L 135.8175 55.002518 
L 144.1875 52.135782 
L 152.5575 51.524407 
L 160.9275 52.874142 
L 169.2975 52.874628 
L 177.6675 40.671674 
L 186.0375 61.597754 
L 194.4075 46.917492 
L 202.7775 57.084074 
" clip-path="url(#p1a6fe5fd72)" style="fill: none; stroke: #bdbebf; stroke-width: 1.5; stroke-linecap: square"/>
   </g>
   <g id="line2d_44">
    <path d="M 60.4875 42.014306 
L 68.8575 44.063497 
L 77.2275 48.204384 
L 85.5975 54.230012 
L 93.9675 53.017984 
L 102.3375 55.994259 
L 110.7075 56.94057 
L 119.0775 57.320165 
L 127.4475 57.374794 
L 135.8175 54.920692 
L 144.1875 56.091103 
L 152.5575 56.681433 
L 160.9275 56.838968 
L 169.2975 58.354634 
L 177.6675 58.610514 
L 186.0375 58.742029 
L 194.4075 55.715593 
L 202.7775 52.707889 
" clip-path="url(#p1a6fe5fd72)" style="fill: none; stroke: #bdbebf; stroke-width: 1.5; stroke-linecap: square"/>
   </g>
   <g id="line2d_45">
    <path d="M 60.4875 38.679997 
L 68.8575 42.376215 
L 77.2275 48.666621 
L 85.5975 54.525498 
L 93.9675 54.614784 
L 102.3375 54.503937 
L 110.7075 53.793006 
L 119.0775 54.564873 
L 127.4475 54.493048 
L 135.8175 55.595585 
L 144.1875 56.599263 
L 152.5575 55.10215 
L 160.9275 55.253196 
L 169.2975 54.197468 
L 177.6675 54.927961 
L 186.0375 60.374289 
L 194.4075 60.794948 
L 202.7775 61.663002 
" clip-path="url(#p1a6fe5fd72)" style="fill: none; stroke: #bdbebf; stroke-width: 1.5; stroke-linecap: square"/>
   </g>
   <g id="line2d_46">
    <path d="M 60.4875 42.072979 
L 68.8575 45.977539 
L 77.2275 44.575188 
L 85.5975 47.682165 
L 93.9675 55.625467 
L 102.3375 54.91596 
L 110.7075 56.591852 
L 119.0775 56.445424 
L 127.4475 56.274031 
L 135.8175 55.621277 
L 144.1875 58.749131 
L 152.5575 52.700991 
L 160.9275 59.789382 
L 169.2975 53.459009 
L 177.6675 56.936661 
L 186.0375 49.669907 
L 194.4075 55.513791 
L 202.7775 55.068372 
" clip-path="url(#p1a6fe5fd72)" style="fill: none; stroke: #bdbebf; stroke-width: 1.5; stroke-linecap: square"/>
   </g>
   <g id="line2d_47">
    <path d="M 60.4875 39.184779 
L 68.8575 45.422303 
L 77.2275 46.735295 
L 85.5975 50.778224 
L 93.9675 54.991729 
L 102.3375 56.64006 
L 110.7075 61.807309 
L 119.0775 56.561846 
L 127.4475 59.5157 
L 135.8175 58.196575 
L 144.1875 52.678473 
L 152.5575 55.599033 
L 160.9275 49.824976 
L 169.2975 39.077865 
L 177.6675 57.361519 
L 186.0375 47.144025 
L 194.4075 53.367627 
L 202.7775 73.901084 
" clip-path="url(#p1a6fe5fd72)" style="fill: none; stroke: #bdbebf; stroke-width: 1.5; stroke-linecap: square"/>
   </g>
   <g id="line2d_48">
    <path d="M 60.4875 42.970919 
L 68.8575 45.00228 
L 77.2275 47.846396 
L 85.5975 47.747253 
L 93.9675 59.230368 
L 102.3375 59.3726 
L 110.7075 60.275083 
L 119.0775 55.544581 
L 127.4475 54.761998 
L 135.8175 56.958213 
L 144.1875 60.587979 
L 152.5575 56.737295 
L 160.9275 54.766129 
L 169.2975 61.136373 
L 177.6675 56.653723 
L 186.0375 59.024805 
L 194.4075 57.128171 
L 202.7775 54.918981 
" clip-path="url(#p1a6fe5fd72)" style="fill: none; stroke: #bdbebf; stroke-width: 1.5; stroke-linecap: square"/>
   </g>
   <g id="line2d_49">
    <path d="M 60.4875 39.783151 
L 68.8575 41.831748 
L 77.2275 44.511475 
L 85.5975 50.31298 
L 93.9675 51.867029 
L 102.3375 57.989788 
L 110.7075 58.630784 
L 119.0775 58.035184 
L 127.4475 59.750913 
L 135.8175 57.919004 
L 144.1875 59.793201 
L 152.5575 57.517692 
L 160.9275 57.577249 
L 169.2975 58.207971 
L 177.6675 58.540043 
L 186.0375 54.940929 
L 194.4075 59.690358 
L 202.7775 57.62705 
" clip-path="url(#p1a6fe5fd72)" style="fill: none; stroke: #bdbebf; stroke-width: 1.5; stroke-linecap: square"/>
   </g>
   <g id="line2d_50">
    <path d="M 60.4875 43.39969 
L 68.8575 47.223511 
L 77.2275 43.42001 
L 85.5975 52.020349 
L 93.9675 51.141365 
L 102.3375 59.100067 
L 110.7075 60.310397 
L 119.0775 55.851634 
L 127.4475 59.881632 
L 135.8175 61.697067 
L 144.1875 55.848463 
L 152.5575 59.531815 
L 160.9275 61.498545 
L 169.2975 57.560744 
L 177.6675 52.963983 
L 186.0375 58.975473 
L 194.4075 53.834904 
L 202.7775 56.659233 
" clip-path="url(#p1a6fe5fd72)" style="fill: none; stroke: #bdbebf; stroke-width: 1.5; stroke-linecap: square"/>
   </g>
   <g id="line2d_51">
    <path d="M 60.4875 39.297631 
L 68.8575 39.527936 
L 77.2275 39.477991 
L 85.5975 51.740731 
L 93.9675 55.628678 
L 102.3375 55.663778 
L 110.7075 58.96727 
L 119.0775 59.538419 
L 127.4475 56.35837 
L 135.8175 60.185683 
L 144.1875 58.992691 
L 152.5575 60.553191 
L 160.9275 60.883043 
L 169.2975 57.712175 
L 177.6675 43.853806 
L 186.0375 71.866544 
L 194.4075 59.778118 
L 202.7775 67.99645 
" clip-path="url(#p1a6fe5fd72)" style="fill: none; stroke: #bdbebf; stroke-width: 1.5; stroke-linecap: square"/>
   </g>
   <g id="line2d_52">
    <path d="M 60.4875 39.618051 
L 68.8575 44.336423 
L 77.2275 40.646088 
L 85.5975 49.458466 
L 93.9675 54.452882 
L 102.3375 55.667007 
L 110.7075 60.164297 
L 119.0775 59.352358 
L 127.4475 61.16755 
L 135.8175 57.900224 
L 144.1875 59.401974 
L 152.5575 62.921873 
L 160.9275 57.385297 
L 169.2975 60.338878 
L 177.6675 58.72505 
L 186.0375 59.133504 
L 194.4075 55.094967 
L 202.7775 61.866288 
" clip-path="url(#p1a6fe5fd72)" style="fill: none; stroke: #bdbebf; stroke-width: 1.5; stroke-linecap: square"/>
   </g>
   <g id="line2d_53">
    <path d="M 60.4875 38.282971 
L 68.8575 43.057422 
L 77.2275 44.164059 
L 85.5975 53.766839 
L 93.9675 52.118936 
L 102.3375 54.327596 
L 110.7075 60.177732 
L 119.0775 59.647733 
L 127.4475 59.169293 
L 135.8175 55.865626 
L 144.1875 59.032391 
L 152.5575 62.08139 
L 160.9275 62.024016 
L 169.2975 59.12837 
L 177.6675 60.843738 
L 186.0375 59.720263 
L 194.4075 62.361968 
L 202.7775 63.611309 
" clip-path="url(#p1a6fe5fd72)" style="fill: none; stroke: #bdbebf; stroke-width: 1.5; stroke-linecap: square"/>
   </g>
   <g id="line2d_54">
    <path d="M 60.4875 40.813341 
L 68.8575 35.429836 
L 77.2275 43.776826 
L 85.5975 47.670585 
L 93.9675 54.217958 
L 102.3375 58.645125 
L 110.7075 56.365997 
L 119.0775 60.149271 
L 127.4475 59.380901 
L 135.8175 57.674021 
L 144.1875 55.273884 
L 152.5575 60.832485 
L 160.9275 58.306606 
L 169.2975 61.215574 
L 177.6675 56.71243 
L 186.0375 62.199303 
L 194.4075 53.990588 
L 202.7775 57.557967 
" clip-path="url(#p1a6fe5fd72)" style="fill: none; stroke: #bdbebf; stroke-width: 1.5; stroke-linecap: square"/>
   </g>
   <g id="line2d_55">
    <path d="M 60.4875 38.183458 
L 68.8575 40.395095 
L 77.2275 43.367742 
L 85.5975 52.794862 
L 93.9675 51.932084 
L 102.3375 59.360054 
L 110.7075 59.258259 
L 119.0775 60.854797 
L 127.4475 58.692919 
L 135.8175 62.119793 
L 144.1875 60.233359 
L 152.5575 62.347753 
L 160.9275 70.164576 
L 169.2975 61.839871 
L 177.6675 60.15748 
L 186.0375 55.615834 
L 194.4075 61.874058 
L 202.7775 70.344135 
" clip-path="url(#p1a6fe5fd72)" style="fill: none; stroke: #bdbebf; stroke-width: 1.5; stroke-linecap: square"/>
   </g>
   <g id="line2d_56">
    <path d="M 60.4875 36.160761 
L 68.8575 38.249739 
L 77.2275 42.793506 
L 85.5975 49.043591 
L 93.9675 53.094495 
L 102.3375 58.9991 
L 110.7075 57.695287 
L 119.0775 63.485866 
L 127.4475 62.68029 
L 135.8175 65.13049 
L 144.1875 63.270064 
L 152.5575 63.632721 
L 160.9275 60.857491 
L 169.2975 62.693819 
L 177.6675 66.422856 
L 186.0375 68.069051 
L 194.4075 67.143131 
L 202.7775 66.730969 
" clip-path="url(#p1a6fe5fd72)" style="fill: none; stroke: #bdbebf; stroke-width: 1.5; stroke-linecap: square"/>
   </g>
   <g id="line2d_57">
    <path d="M 60.4875 34.523972 
L 68.8575 37.72171 
L 77.2275 40.739528 
L 85.5975 52.338408 
L 93.9675 55.882537 
L 102.3375 57.507267 
L 110.7075 63.877948 
L 119.0775 61.937761 
L 127.4475 62.996088 
L 135.8175 61.554774 
L 144.1875 62.679207 
L 152.5575 58.754289 
L 160.9275 63.366621 
L 169.2975 62.071266 
L 177.6675 66.086858 
L 186.0375 67.340441 
L 194.4075 65.96797 
L 202.7775 59.659734 
" clip-path="url(#p1a6fe5fd72)" style="fill: none; stroke: #bdbebf; stroke-width: 1.5; stroke-linecap: square"/>
   </g>
   <g id="line2d_58">
    <path d="M 60.4875 41.363183 
L 68.8575 41.286801 
L 77.2275 40.483221 
L 85.5975 51.479948 
L 93.9675 56.814352 
L 102.3375 60.271699 
L 110.7075 62.203504 
L 119.0775 60.438974 
L 127.4475 61.744232 
L 135.8175 61.033945 
L 144.1875 60.443213 
L 152.5575 62.784313 
L 160.9275 63.691555 
L 169.2975 61.173452 
L 177.6675 57.05555 
L 186.0375 62.523695 
L 194.4075 58.998795 
L 202.7775 68.771648 
" clip-path="url(#p1a6fe5fd72)" style="fill: none; stroke: #bdbebf; stroke-width: 1.5; stroke-linecap: square"/>
   </g>
   <g id="line2d_59">
    <path d="M 60.4875 37.616707 
L 68.8575 37.469497 
L 77.2275 42.485622 
L 85.5975 51.291287 
L 93.9675 55.194001 
L 102.3375 58.167886 
L 110.7075 63.055214 
L 119.0775 59.612725 
L 127.4475 61.818268 
L 135.8175 61.355059 
L 144.1875 56.358036 
L 152.5575 62.061558 
L 160.9275 54.233831 
L 169.2975 63.609694 
L 177.6675 71.307855 
L 186.0375 64.808985 
L 194.4075 75.231742 
L 202.7775 61.567022 
" clip-path="url(#p1a6fe5fd72)" style="fill: none; stroke: #bdbebf; stroke-width: 1.5; stroke-linecap: square"/>
   </g>
   <g id="line2d_60">
    <path d="M 60.4875 32.2857 
L 68.8575 37.601437 
L 77.2275 39.929425 
L 85.5975 53.000845 
L 93.9675 56.545741 
L 102.3375 61.964286 
L 110.7075 59.626583 
L 119.0775 61.018327 
L 127.4475 61.656731 
L 135.8175 61.522756 
L 144.1875 61.259104 
L 152.5575 60.447148 
L 160.9275 61.810929 
L 169.2975 61.668124 
L 177.6675 59.4348 
L 186.0375 61.459714 
L 194.4075 56.11342 
L 202.7775 61.657591 
" clip-path="url(#p1a6fe5fd72)" style="fill: none; stroke: #bdbebf; stroke-width: 1.5; stroke-linecap: square"/>
   </g>
   <g id="line2d_61">
    <path d="M 60.4875 36.390624 
L 68.8575 40.918625 
L 77.2275 40.922773 
L 85.5975 52.850077 
L 93.9675 56.774373 
L 102.3375 59.102642 
L 110.7075 63.585675 
L 119.0775 63.671915 
L 127.4475 63.094009 
L 135.8175 64.690432 
L 144.1875 60.17517 
L 152.5575 65.04945 
L 160.9275 63.04305 
L 169.2975 63.585664 
L 177.6675 63.767866 
L 186.0375 60.280012 
L 194.4075 61.520966 
L 202.7775 57.092704 
" clip-path="url(#p1a6fe5fd72)" style="fill: none; stroke: #bdbebf; stroke-width: 1.5; stroke-linecap: square"/>
   </g>
   <g id="line2d_62">
    <path d="M 60.4875 35.057007 
L 68.8575 36.137737 
L 77.2275 39.096592 
L 85.5975 53.011383 
L 93.9675 57.594043 
L 102.3375 63.049075 
L 110.7075 64.2348 
L 119.0775 65.093231 
L 127.4475 60.090001 
L 135.8175 64.18862 
L 144.1875 61.896887 
L 152.5575 65.379036 
L 160.9275 67.899265 
L 169.2975 60.327595 
L 177.6675 61.209896 
L 186.0375 60.537041 
L 194.4075 62.953562 
L 202.7775 62.164356 
" clip-path="url(#p1a6fe5fd72)" style="fill: none; stroke: #bdbebf; stroke-width: 1.5; stroke-linecap: square"/>
   </g>
   <g id="line2d_63">
    <path d="M 60.4875 47.858764 
L 68.8575 51.120727 
L 77.2275 53.034765 
L 85.5975 59.318204 
L 93.9675 62.198752 
L 102.3375 64.218351 
L 110.7075 65.012707 
L 119.0775 64.890743 
L 127.4475 63.124481 
L 135.8175 63.222878 
L 144.1875 62.253132 
L 152.5575 60.709953 
L 160.9275 62.503383 
L 169.2975 58.443247 
L 177.6675 59.412577 
L 186.0375 61.831662 
L 194.4075 58.089887 
L 202.7775 66.000778 
" clip-path="url(#p1a6fe5fd72)" style="fill: none; stroke: #0000ff; stroke-width: 1.5; stroke-linecap: square"/>
    <defs>
     <path id="m61341d3e06" d="M 0 3 
C 0.795609 3 1.55874 2.683901 2.12132 2.12132 
C 2.683901 1.55874 3 0.795609 3 0 
C 3 -0.795609 2.683901 -1.55874 2.12132 -2.12132 
C 1.55874 -2.683901 0.795609 -3 0 -3 
C -0.795609 -3 -1.55874 -2.683901 -2.12132 -2.12132 
C -2.683901 -1.55874 -3 -0.795609 -3 0 
C -3 0.795609 -2.683901 1.55874 -2.12132 2.12132 
C -1.55874 2.683901 -0.795609 3 0 3 
z
" style="stroke: #0000ff"/>
    </defs>
    <g clip-path="url(#p1a6fe5fd72)">
     <use xlink:href="#m61341d3e06" x="60.4875" y="47.858764" style="fill: #0000ff; stroke: #0000ff"/>
     <use xlink:href="#m61341d3e06" x="68.8575" y="51.120727" style="fill: #0000ff; stroke: #0000ff"/>
     <use xlink:href="#m61341d3e06" x="77.2275" y="53.034765" style="fill: #0000ff; stroke: #0000ff"/>
     <use xlink:href="#m61341d3e06" x="85.5975" y="59.318204" style="fill: #0000ff; stroke: #0000ff"/>
     <use xlink:href="#m61341d3e06" x="93.9675" y="62.198752" style="fill: #0000ff; stroke: #0000ff"/>
     <use xlink:href="#m61341d3e06" x="102.3375" y="64.218351" style="fill: #0000ff; stroke: #0000ff"/>
     <use xlink:href="#m61341d3e06" x="110.7075" y="65.012707" style="fill: #0000ff; stroke: #0000ff"/>
     <use xlink:href="#m61341d3e06" x="119.0775" y="64.890743" style="fill: #0000ff; stroke: #0000ff"/>
     <use xlink:href="#m61341d3e06" x="127.4475" y="63.124481" style="fill: #0000ff; stroke: #0000ff"/>
     <use xlink:href="#m61341d3e06" x="135.8175" y="63.222878" style="fill: #0000ff; stroke: #0000ff"/>
     <use xlink:href="#m61341d3e06" x="144.1875" y="62.253132" style="fill: #0000ff; stroke: #0000ff"/>
     <use xlink:href="#m61341d3e06" x="152.5575" y="60.709953" style="fill: #0000ff; stroke: #0000ff"/>
     <use xlink:href="#m61341d3e06" x="160.9275" y="62.503383" style="fill: #0000ff; stroke: #0000ff"/>
     <use xlink:href="#m61341d3e06" x="169.2975" y="58.443247" style="fill: #0000ff; stroke: #0000ff"/>
     <use xlink:href="#m61341d3e06" x="177.6675" y="59.412577" style="fill: #0000ff; stroke: #0000ff"/>
     <use xlink:href="#m61341d3e06" x="186.0375" y="61.831662" style="fill: #0000ff; stroke: #0000ff"/>
     <use xlink:href="#m61341d3e06" x="194.4075" y="58.089887" style="fill: #0000ff; stroke: #0000ff"/>
     <use xlink:href="#m61341d3e06" x="202.7775" y="66.000778" style="fill: #0000ff; stroke: #0000ff"/>
    </g>
   </g>
   <g id="patch_3">
    <path d="M 39.5625 121.119375 
L 39.5625 10.239375 
" style="fill: none; stroke: #000000; stroke-width: 0.8; stroke-linejoin: miter; stroke-linecap: square"/>
   </g>
   <g id="patch_4">
    <path d="M 206.9625 121.119375 
L 206.9625 10.239375 
" style="fill: none; stroke: #000000; stroke-width: 0.8; stroke-linejoin: miter; stroke-linecap: square"/>
   </g>
   <g id="patch_5">
    <path d="M 39.5625 121.119375 
L 206.9625 121.119375 
" style="fill: none; stroke: #000000; stroke-width: 0.8; stroke-linejoin: miter; stroke-linecap: square"/>
   </g>
   <g id="patch_6">
    <path d="M 39.5625 10.239375 
L 206.9625 10.239375 
" style="fill: none; stroke: #000000; stroke-width: 0.8; stroke-linejoin: miter; stroke-linecap: square"/>
   </g>
  </g>
 </g>
 <defs>
  <clipPath id="p1a6fe5fd72">
   <rect x="39.5625" y="10.239375" width="167.4" height="110.88"/>
  </clipPath>
 </defs>
</svg>
