<?xml version="1.0" encoding="utf-8" standalone="no"?>
<!DOCTYPE svg PUBLIC "-//W3C//DTD SVG 1.1//EN"
  "http://www.w3.org/Graphics/SVG/1.1/DTD/svg11.dtd">
<svg xmlns:xlink="http://www.w3.org/1999/xlink" width="215.9075pt" height="155.621875pt" viewBox="0 0 215.9075 155.621875" xmlns="http://www.w3.org/2000/svg" version="1.1">
 <metadata>
  <rdf:RDF xmlns:dc="http://purl.org/dc/elements/1.1/" xmlns:cc="http://creativecommons.org/ns#" xmlns:rdf="http://www.w3.org/1999/02/22-rdf-syntax-ns#">
   <cc:Work>
    <dc:type rdf:resource="http://purl.org/dc/dcmitype/StillImage"/>
    <dc:date>2022-09-26T13:32:02.954938</dc:date>
    <dc:format>image/svg+xml</dc:format>
    <dc:creator>
     <cc:Agent>
      <dc:title>Matplotlib v3.6.0, https://matplotlib.org/</dc:title>
     </cc:Agent>
    </dc:creator>
   </cc:Work>
  </rdf:RDF>
 </metadata>
 <defs>
  <style type="text/css">*{stroke-linejoin: round; stroke-linecap: butt}</style>
 </defs>
 <g id="figure_1">
  <g id="patch_1">
   <path d="M 0 155.621875 
L 215.9075 155.621875 
L 215.9075 0 
L 0 0 
z
" style="fill: #ffffff"/>
  </g>
  <g id="axes_1">
   <g id="patch_2">
    <path d="M 38.7625 121.119375 
L 206.1625 121.119375 
L 206.1625 10.239375 
L 38.7625 10.239375 
z
" style="fill: #ffffff"/>
   </g>
   <g id="matplotlib.axis_1">
    <g id="xtick_1">
     <g id="line2d_1">
      <path d="M 38.7625 121.119375 
L 38.7625 10.239375 
" clip-path="url(#p3f5ff0a935)" style="fill: none; stroke-dasharray: 3.7,1.6; stroke-dashoffset: 0; stroke: #b0b0b0"/>
     </g>
     <g id="line2d_2">
      <defs>
       <path id="mcb6f40e8ff" d="M 0 0 
L 0 3.5 
" style="stroke: #000000; stroke-width: 0.8"/>
      </defs>
      <g>
       <use xlink:href="#mcb6f40e8ff" x="38.7625" y="121.119375" style="stroke: #000000; stroke-width: 0.8"/>
      </g>
     </g>
     <g id="text_1">
      <!-- 0 -->
      <g transform="translate(36.2175 134.198125) scale(0.08 -0.08)">
       <defs>
        <path id="DejaVuSans-30" d="M 2034 4250 
Q 1547 4250 1301 3770 
Q 1056 3291 1056 2328 
Q 1056 1369 1301 889 
Q 1547 409 2034 409 
Q 2525 409 2770 889 
Q 3016 1369 3016 2328 
Q 3016 3291 2770 3770 
Q 2525 4250 2034 4250 
z
M 2034 4750 
Q 2819 4750 3233 4129 
Q 3647 3509 3647 2328 
Q 3647 1150 3233 529 
Q 2819 -91 2034 -91 
Q 1250 -91 836 529 
Q 422 1150 422 2328 
Q 422 3509 836 4129 
Q 1250 4750 2034 4750 
z
" transform="scale(0.015625)"/>
       </defs>
       <use xlink:href="#DejaVuSans-30"/>
      </g>
     </g>
    </g>
    <g id="xtick_2">
     <g id="line2d_3">
      <path d="M 72.2425 121.119375 
L 72.2425 10.239375 
" clip-path="url(#p3f5ff0a935)" style="fill: none; stroke-dasharray: 3.7,1.6; stroke-dashoffset: 0; stroke: #b0b0b0"/>
     </g>
     <g id="line2d_4">
      <g>
       <use xlink:href="#mcb6f40e8ff" x="72.2425" y="121.119375" style="stroke: #000000; stroke-width: 0.8"/>
      </g>
     </g>
     <g id="text_2">
      <!-- 1 -->
      <g transform="translate(69.6975 134.198125) scale(0.08 -0.08)">
       <defs>
        <path id="DejaVuSans-31" d="M 794 531 
L 1825 531 
L 1825 4091 
L 703 3866 
L 703 4441 
L 1819 4666 
L 2450 4666 
L 2450 531 
L 3481 531 
L 3481 0 
L 794 0 
L 794 531 
z
" transform="scale(0.015625)"/>
       </defs>
       <use xlink:href="#DejaVuSans-31"/>
      </g>
     </g>
    </g>
    <g id="xtick_3">
     <g id="line2d_5">
      <path d="M 105.7225 121.119375 
L 105.7225 10.239375 
" clip-path="url(#p3f5ff0a935)" style="fill: none; stroke-dasharray: 3.7,1.6; stroke-dashoffset: 0; stroke: #b0b0b0"/>
     </g>
     <g id="line2d_6">
      <g>
       <use xlink:href="#mcb6f40e8ff" x="105.7225" y="121.119375" style="stroke: #000000; stroke-width: 0.8"/>
      </g>
     </g>
     <g id="text_3">
      <!-- 2 -->
      <g transform="translate(103.1775 134.198125) scale(0.08 -0.08)">
       <defs>
        <path id="DejaVuSans-32" d="M 1228 531 
L 3431 531 
L 3431 0 
L 469 0 
L 469 531 
Q 828 903 1448 1529 
Q 2069 2156 2228 2338 
Q 2531 2678 2651 2914 
Q 2772 3150 2772 3378 
Q 2772 3750 2511 3984 
Q 2250 4219 1831 4219 
Q 1534 4219 1204 4116 
Q 875 4013 500 3803 
L 500 4441 
Q 881 4594 1212 4672 
Q 1544 4750 1819 4750 
Q 2544 4750 2975 4387 
Q 3406 4025 3406 3419 
Q 3406 3131 3298 2873 
Q 3191 2616 2906 2266 
Q 2828 2175 2409 1742 
Q 1991 1309 1228 531 
z
" transform="scale(0.015625)"/>
       </defs>
       <use xlink:href="#DejaVuSans-32"/>
      </g>
     </g>
    </g>
    <g id="xtick_4">
     <g id="line2d_7">
      <path d="M 139.2025 121.119375 
L 139.2025 10.239375 
" clip-path="url(#p3f5ff0a935)" style="fill: none; stroke-dasharray: 3.7,1.6; stroke-dashoffset: 0; stroke: #b0b0b0"/>
     </g>
     <g id="line2d_8">
      <g>
       <use xlink:href="#mcb6f40e8ff" x="139.2025" y="121.119375" style="stroke: #000000; stroke-width: 0.8"/>
      </g>
     </g>
     <g id="text_4">
      <!-- 3 -->
      <g transform="translate(136.6575 134.198125) scale(0.08 -0.08)">
       <defs>
        <path id="DejaVuSans-33" d="M 2597 2516 
Q 3050 2419 3304 2112 
Q 3559 1806 3559 1356 
Q 3559 666 3084 287 
Q 2609 -91 1734 -91 
Q 1441 -91 1130 -33 
Q 819 25 488 141 
L 488 750 
Q 750 597 1062 519 
Q 1375 441 1716 441 
Q 2309 441 2620 675 
Q 2931 909 2931 1356 
Q 2931 1769 2642 2001 
Q 2353 2234 1838 2234 
L 1294 2234 
L 1294 2753 
L 1863 2753 
Q 2328 2753 2575 2939 
Q 2822 3125 2822 3475 
Q 2822 3834 2567 4026 
Q 2313 4219 1838 4219 
Q 1578 4219 1281 4162 
Q 984 4106 628 3988 
L 628 4550 
Q 988 4650 1302 4700 
Q 1616 4750 1894 4750 
Q 2613 4750 3031 4423 
Q 3450 4097 3450 3541 
Q 3450 3153 3228 2886 
Q 3006 2619 2597 2516 
z
" transform="scale(0.015625)"/>
       </defs>
       <use xlink:href="#DejaVuSans-33"/>
      </g>
     </g>
    </g>
    <g id="xtick_5">
     <g id="line2d_9">
      <path d="M 172.6825 121.119375 
L 172.6825 10.239375 
" clip-path="url(#p3f5ff0a935)" style="fill: none; stroke-dasharray: 3.7,1.6; stroke-dashoffset: 0; stroke: #b0b0b0"/>
     </g>
     <g id="line2d_10">
      <g>
       <use xlink:href="#mcb6f40e8ff" x="172.6825" y="121.119375" style="stroke: #000000; stroke-width: 0.8"/>
      </g>
     </g>
     <g id="text_5">
      <!-- 4 -->
      <g transform="translate(170.1375 134.198125) scale(0.08 -0.08)">
       <defs>
        <path id="DejaVuSans-34" d="M 2419 4116 
L 825 1625 
L 2419 1625 
L 2419 4116 
z
M 2253 4666 
L 3047 4666 
L 3047 1625 
L 3713 1625 
L 3713 1100 
L 3047 1100 
L 3047 0 
L 2419 0 
L 2419 1100 
L 313 1100 
L 313 1709 
L 2253 4666 
z
" transform="scale(0.015625)"/>
       </defs>
       <use xlink:href="#DejaVuSans-34"/>
      </g>
     </g>
    </g>
    <g id="xtick_6">
     <g id="line2d_11">
      <path d="M 206.1625 121.119375 
L 206.1625 10.239375 
" clip-path="url(#p3f5ff0a935)" style="fill: none; stroke-dasharray: 3.7,1.6; stroke-dashoffset: 0; stroke: #b0b0b0"/>
     </g>
     <g id="line2d_12">
      <g>
       <use xlink:href="#mcb6f40e8ff" x="206.1625" y="121.119375" style="stroke: #000000; stroke-width: 0.8"/>
      </g>
     </g>
     <g id="text_6">
      <!-- 5 -->
      <g transform="translate(203.6175 134.198125) scale(0.08 -0.08)">
       <defs>
        <path id="DejaVuSans-35" d="M 691 4666 
L 3169 4666 
L 3169 4134 
L 1269 4134 
L 1269 2991 
Q 1406 3038 1543 3061 
Q 1681 3084 1819 3084 
Q 2600 3084 3056 2656 
Q 3513 2228 3513 1497 
Q 3513 744 3044 326 
Q 2575 -91 1722 -91 
Q 1428 -91 1123 -41 
Q 819 9 494 109 
L 494 744 
Q 775 591 1075 516 
Q 1375 441 1709 441 
Q 2250 441 2565 725 
Q 2881 1009 2881 1497 
Q 2881 1984 2565 2268 
Q 2250 2553 1709 2553 
Q 1456 2553 1204 2497 
Q 953 2441 691 2322 
L 691 4666 
z
" transform="scale(0.015625)"/>
       </defs>
       <use xlink:href="#DejaVuSans-35"/>
      </g>
     </g>
    </g>
    <g id="text_7">
     <!-- Observed ductility demand, $\mu_{dyn}$ -->
     <g transform="translate(57.7025 145.941875) scale(0.08 -0.08)">
      <defs>
       <path id="DejaVuSans-4f" d="M 2522 4238 
Q 1834 4238 1429 3725 
Q 1025 3213 1025 2328 
Q 1025 1447 1429 934 
Q 1834 422 2522 422 
Q 3209 422 3611 934 
Q 4013 1447 4013 2328 
Q 4013 3213 3611 3725 
Q 3209 4238 2522 4238 
z
M 2522 4750 
Q 3503 4750 4090 4092 
Q 4678 3434 4678 2328 
Q 4678 1225 4090 567 
Q 3503 -91 2522 -91 
Q 1538 -91 948 565 
Q 359 1222 359 2328 
Q 359 3434 948 4092 
Q 1538 4750 2522 4750 
z
" transform="scale(0.015625)"/>
       <path id="DejaVuSans-62" d="M 3116 1747 
Q 3116 2381 2855 2742 
Q 2594 3103 2138 3103 
Q 1681 3103 1420 2742 
Q 1159 2381 1159 1747 
Q 1159 1113 1420 752 
Q 1681 391 2138 391 
Q 2594 391 2855 752 
Q 3116 1113 3116 1747 
z
M 1159 2969 
Q 1341 3281 1617 3432 
Q 1894 3584 2278 3584 
Q 2916 3584 3314 3078 
Q 3713 2572 3713 1747 
Q 3713 922 3314 415 
Q 2916 -91 2278 -91 
Q 1894 -91 1617 61 
Q 1341 213 1159 525 
L 1159 0 
L 581 0 
L 581 4863 
L 1159 4863 
L 1159 2969 
z
" transform="scale(0.015625)"/>
       <path id="DejaVuSans-73" d="M 2834 3397 
L 2834 2853 
Q 2591 2978 2328 3040 
Q 2066 3103 1784 3103 
Q 1356 3103 1142 2972 
Q 928 2841 928 2578 
Q 928 2378 1081 2264 
Q 1234 2150 1697 2047 
L 1894 2003 
Q 2506 1872 2764 1633 
Q 3022 1394 3022 966 
Q 3022 478 2636 193 
Q 2250 -91 1575 -91 
Q 1294 -91 989 -36 
Q 684 19 347 128 
L 347 722 
Q 666 556 975 473 
Q 1284 391 1588 391 
Q 1994 391 2212 530 
Q 2431 669 2431 922 
Q 2431 1156 2273 1281 
Q 2116 1406 1581 1522 
L 1381 1569 
Q 847 1681 609 1914 
Q 372 2147 372 2553 
Q 372 3047 722 3315 
Q 1072 3584 1716 3584 
Q 2034 3584 2315 3537 
Q 2597 3491 2834 3397 
z
" transform="scale(0.015625)"/>
       <path id="DejaVuSans-65" d="M 3597 1894 
L 3597 1613 
L 953 1613 
Q 991 1019 1311 708 
Q 1631 397 2203 397 
Q 2534 397 2845 478 
Q 3156 559 3463 722 
L 3463 178 
Q 3153 47 2828 -22 
Q 2503 -91 2169 -91 
Q 1331 -91 842 396 
Q 353 884 353 1716 
Q 353 2575 817 3079 
Q 1281 3584 2069 3584 
Q 2775 3584 3186 3129 
Q 3597 2675 3597 1894 
z
M 3022 2063 
Q 3016 2534 2758 2815 
Q 2500 3097 2075 3097 
Q 1594 3097 1305 2825 
Q 1016 2553 972 2059 
L 3022 2063 
z
" transform="scale(0.015625)"/>
       <path id="DejaVuSans-72" d="M 2631 2963 
Q 2534 3019 2420 3045 
Q 2306 3072 2169 3072 
Q 1681 3072 1420 2755 
Q 1159 2438 1159 1844 
L 1159 0 
L 581 0 
L 581 3500 
L 1159 3500 
L 1159 2956 
Q 1341 3275 1631 3429 
Q 1922 3584 2338 3584 
Q 2397 3584 2469 3576 
Q 2541 3569 2628 3553 
L 2631 2963 
z
" transform="scale(0.015625)"/>
       <path id="DejaVuSans-76" d="M 191 3500 
L 800 3500 
L 1894 563 
L 2988 3500 
L 3597 3500 
L 2284 0 
L 1503 0 
L 191 3500 
z
" transform="scale(0.015625)"/>
       <path id="DejaVuSans-64" d="M 2906 2969 
L 2906 4863 
L 3481 4863 
L 3481 0 
L 2906 0 
L 2906 525 
Q 2725 213 2448 61 
Q 2172 -91 1784 -91 
Q 1150 -91 751 415 
Q 353 922 353 1747 
Q 353 2572 751 3078 
Q 1150 3584 1784 3584 
Q 2172 3584 2448 3432 
Q 2725 3281 2906 2969 
z
M 947 1747 
Q 947 1113 1208 752 
Q 1469 391 1925 391 
Q 2381 391 2643 752 
Q 2906 1113 2906 1747 
Q 2906 2381 2643 2742 
Q 2381 3103 1925 3103 
Q 1469 3103 1208 2742 
Q 947 2381 947 1747 
z
" transform="scale(0.015625)"/>
       <path id="DejaVuSans-20" transform="scale(0.015625)"/>
       <path id="DejaVuSans-75" d="M 544 1381 
L 544 3500 
L 1119 3500 
L 1119 1403 
Q 1119 906 1312 657 
Q 1506 409 1894 409 
Q 2359 409 2629 706 
Q 2900 1003 2900 1516 
L 2900 3500 
L 3475 3500 
L 3475 0 
L 2900 0 
L 2900 538 
Q 2691 219 2414 64 
Q 2138 -91 1772 -91 
Q 1169 -91 856 284 
Q 544 659 544 1381 
z
M 1991 3584 
L 1991 3584 
z
" transform="scale(0.015625)"/>
       <path id="DejaVuSans-63" d="M 3122 3366 
L 3122 2828 
Q 2878 2963 2633 3030 
Q 2388 3097 2138 3097 
Q 1578 3097 1268 2742 
Q 959 2388 959 1747 
Q 959 1106 1268 751 
Q 1578 397 2138 397 
Q 2388 397 2633 464 
Q 2878 531 3122 666 
L 3122 134 
Q 2881 22 2623 -34 
Q 2366 -91 2075 -91 
Q 1284 -91 818 406 
Q 353 903 353 1747 
Q 353 2603 823 3093 
Q 1294 3584 2113 3584 
Q 2378 3584 2631 3529 
Q 2884 3475 3122 3366 
z
" transform="scale(0.015625)"/>
       <path id="DejaVuSans-74" d="M 1172 4494 
L 1172 3500 
L 2356 3500 
L 2356 3053 
L 1172 3053 
L 1172 1153 
Q 1172 725 1289 603 
Q 1406 481 1766 481 
L 2356 481 
L 2356 0 
L 1766 0 
Q 1100 0 847 248 
Q 594 497 594 1153 
L 594 3053 
L 172 3053 
L 172 3500 
L 594 3500 
L 594 4494 
L 1172 4494 
z
" transform="scale(0.015625)"/>
       <path id="DejaVuSans-69" d="M 603 3500 
L 1178 3500 
L 1178 0 
L 603 0 
L 603 3500 
z
M 603 4863 
L 1178 4863 
L 1178 4134 
L 603 4134 
L 603 4863 
z
" transform="scale(0.015625)"/>
       <path id="DejaVuSans-6c" d="M 603 4863 
L 1178 4863 
L 1178 0 
L 603 0 
L 603 4863 
z
" transform="scale(0.015625)"/>
       <path id="DejaVuSans-79" d="M 2059 -325 
Q 1816 -950 1584 -1140 
Q 1353 -1331 966 -1331 
L 506 -1331 
L 506 -850 
L 844 -850 
Q 1081 -850 1212 -737 
Q 1344 -625 1503 -206 
L 1606 56 
L 191 3500 
L 800 3500 
L 1894 763 
L 2988 3500 
L 3597 3500 
L 2059 -325 
z
" transform="scale(0.015625)"/>
       <path id="DejaVuSans-6d" d="M 3328 2828 
Q 3544 3216 3844 3400 
Q 4144 3584 4550 3584 
Q 5097 3584 5394 3201 
Q 5691 2819 5691 2113 
L 5691 0 
L 5113 0 
L 5113 2094 
Q 5113 2597 4934 2840 
Q 4756 3084 4391 3084 
Q 3944 3084 3684 2787 
Q 3425 2491 3425 1978 
L 3425 0 
L 2847 0 
L 2847 2094 
Q 2847 2600 2669 2842 
Q 2491 3084 2119 3084 
Q 1678 3084 1418 2786 
Q 1159 2488 1159 1978 
L 1159 0 
L 581 0 
L 581 3500 
L 1159 3500 
L 1159 2956 
Q 1356 3278 1631 3431 
Q 1906 3584 2284 3584 
Q 2666 3584 2933 3390 
Q 3200 3197 3328 2828 
z
" transform="scale(0.015625)"/>
       <path id="DejaVuSans-61" d="M 2194 1759 
Q 1497 1759 1228 1600 
Q 959 1441 959 1056 
Q 959 750 1161 570 
Q 1363 391 1709 391 
Q 2188 391 2477 730 
Q 2766 1069 2766 1631 
L 2766 1759 
L 2194 1759 
z
M 3341 1997 
L 3341 0 
L 2766 0 
L 2766 531 
Q 2569 213 2275 61 
Q 1981 -91 1556 -91 
Q 1019 -91 701 211 
Q 384 513 384 1019 
Q 384 1609 779 1909 
Q 1175 2209 1959 2209 
L 2766 2209 
L 2766 2266 
Q 2766 2663 2505 2880 
Q 2244 3097 1772 3097 
Q 1472 3097 1187 3025 
Q 903 2953 641 2809 
L 641 3341 
Q 956 3463 1253 3523 
Q 1550 3584 1831 3584 
Q 2591 3584 2966 3190 
Q 3341 2797 3341 1997 
z
" transform="scale(0.015625)"/>
       <path id="DejaVuSans-6e" d="M 3513 2113 
L 3513 0 
L 2938 0 
L 2938 2094 
Q 2938 2591 2744 2837 
Q 2550 3084 2163 3084 
Q 1697 3084 1428 2787 
Q 1159 2491 1159 1978 
L 1159 0 
L 581 0 
L 581 3500 
L 1159 3500 
L 1159 2956 
Q 1366 3272 1645 3428 
Q 1925 3584 2291 3584 
Q 2894 3584 3203 3211 
Q 3513 2838 3513 2113 
z
" transform="scale(0.015625)"/>
       <path id="DejaVuSans-2c" d="M 750 794 
L 1409 794 
L 1409 256 
L 897 -744 
L 494 -744 
L 750 256 
L 750 794 
z
" transform="scale(0.015625)"/>
       <path id="DejaVuSans-Oblique-3bc" d="M -84 -1331 
L 856 3500 
L 1434 3500 
L 1009 1322 
Q 997 1256 987 1175 
Q 978 1094 978 1013 
Q 978 722 1161 565 
Q 1344 409 1684 409 
Q 2147 409 2431 671 
Q 2716 934 2816 1459 
L 3213 3500 
L 3788 3500 
L 3266 809 
Q 3253 750 3248 706 
Q 3244 663 3244 628 
Q 3244 531 3283 486 
Q 3322 441 3406 441 
Q 3438 441 3492 456 
Q 3547 472 3647 513 
L 3559 50 
Q 3422 -19 3297 -55 
Q 3172 -91 3053 -91 
Q 2847 -91 2730 40 
Q 2613 172 2613 403 
Q 2438 153 2195 31 
Q 1953 -91 1625 -91 
Q 1334 -91 1117 43 
Q 900 178 831 397 
L 494 -1331 
L -84 -1331 
z
" transform="scale(0.015625)"/>
       <path id="DejaVuSans-Oblique-64" d="M 2675 525 
Q 2444 222 2128 65 
Q 1813 -91 1428 -91 
Q 903 -91 598 267 
Q 294 625 294 1247 
Q 294 1766 478 2236 
Q 663 2706 1013 3078 
Q 1244 3325 1534 3454 
Q 1825 3584 2144 3584 
Q 2481 3584 2739 3421 
Q 2997 3259 3138 2956 
L 3513 4863 
L 4091 4863 
L 3144 0 
L 2566 0 
L 2675 525 
z
M 891 1350 
Q 891 897 1095 644 
Q 1300 391 1663 391 
Q 1931 391 2161 520 
Q 2391 650 2566 903 
Q 2750 1166 2856 1509 
Q 2963 1853 2963 2188 
Q 2963 2622 2758 2865 
Q 2553 3109 2194 3109 
Q 1922 3109 1687 2981 
Q 1453 2853 1288 2613 
Q 1106 2353 998 2009 
Q 891 1666 891 1350 
z
" transform="scale(0.015625)"/>
       <path id="DejaVuSans-Oblique-79" d="M 1588 -325 
Q 1188 -997 936 -1164 
Q 684 -1331 294 -1331 
L -159 -1331 
L -63 -850 
L 269 -850 
Q 509 -850 678 -719 
Q 847 -588 1056 -206 
L 1234 128 
L 459 3500 
L 1069 3500 
L 1650 819 
L 3256 3500 
L 3859 3500 
L 1588 -325 
z
" transform="scale(0.015625)"/>
       <path id="DejaVuSans-Oblique-6e" d="M 3566 2113 
L 3156 0 
L 2578 0 
L 2988 2091 
Q 3016 2238 3031 2350 
Q 3047 2463 3047 2528 
Q 3047 2791 2881 2937 
Q 2716 3084 2419 3084 
Q 1956 3084 1622 2776 
Q 1288 2469 1184 1941 
L 800 0 
L 225 0 
L 903 3500 
L 1478 3500 
L 1363 2950 
Q 1603 3253 1940 3418 
Q 2278 3584 2650 3584 
Q 3113 3584 3367 3334 
Q 3622 3084 3622 2631 
Q 3622 2519 3608 2391 
Q 3594 2263 3566 2113 
z
" transform="scale(0.015625)"/>
      </defs>
      <use xlink:href="#DejaVuSans-4f" transform="translate(0 0.015625)"/>
      <use xlink:href="#DejaVuSans-62" transform="translate(78.710938 0.015625)"/>
      <use xlink:href="#DejaVuSans-73" transform="translate(142.1875 0.015625)"/>
      <use xlink:href="#DejaVuSans-65" transform="translate(194.287109 0.015625)"/>
      <use xlink:href="#DejaVuSans-72" transform="translate(255.810547 0.015625)"/>
      <use xlink:href="#DejaVuSans-76" transform="translate(296.923828 0.015625)"/>
      <use xlink:href="#DejaVuSans-65" transform="translate(356.103516 0.015625)"/>
      <use xlink:href="#DejaVuSans-64" transform="translate(417.626953 0.015625)"/>
      <use xlink:href="#DejaVuSans-20" transform="translate(481.103516 0.015625)"/>
      <use xlink:href="#DejaVuSans-64" transform="translate(512.890625 0.015625)"/>
      <use xlink:href="#DejaVuSans-75" transform="translate(576.367188 0.015625)"/>
      <use xlink:href="#DejaVuSans-63" transform="translate(639.746094 0.015625)"/>
      <use xlink:href="#DejaVuSans-74" transform="translate(694.726562 0.015625)"/>
      <use xlink:href="#DejaVuSans-69" transform="translate(733.935547 0.015625)"/>
      <use xlink:href="#DejaVuSans-6c" transform="translate(761.71875 0.015625)"/>
      <use xlink:href="#DejaVuSans-69" transform="translate(789.501953 0.015625)"/>
      <use xlink:href="#DejaVuSans-74" transform="translate(817.285156 0.015625)"/>
      <use xlink:href="#DejaVuSans-79" transform="translate(856.494141 0.015625)"/>
      <use xlink:href="#DejaVuSans-20" transform="translate(915.673828 0.015625)"/>
      <use xlink:href="#DejaVuSans-64" transform="translate(947.460938 0.015625)"/>
      <use xlink:href="#DejaVuSans-65" transform="translate(1010.9375 0.015625)"/>
      <use xlink:href="#DejaVuSans-6d" transform="translate(1072.460938 0.015625)"/>
      <use xlink:href="#DejaVuSans-61" transform="translate(1169.873047 0.015625)"/>
      <use xlink:href="#DejaVuSans-6e" transform="translate(1231.152344 0.015625)"/>
      <use xlink:href="#DejaVuSans-64" transform="translate(1294.53125 0.015625)"/>
      <use xlink:href="#DejaVuSans-2c" transform="translate(1358.007812 0.015625)"/>
      <use xlink:href="#DejaVuSans-20" transform="translate(1389.794922 0.015625)"/>
      <use xlink:href="#DejaVuSans-Oblique-3bc" transform="translate(1421.582031 0.015625)"/>
      <use xlink:href="#DejaVuSans-Oblique-64" transform="translate(1485.205078 -16.390625) scale(0.7)"/>
      <use xlink:href="#DejaVuSans-Oblique-79" transform="translate(1529.638672 -16.390625) scale(0.7)"/>
      <use xlink:href="#DejaVuSans-Oblique-6e" transform="translate(1571.064453 -16.390625) scale(0.7)"/>
     </g>
    </g>
   </g>
   <g id="matplotlib.axis_2">
    <g id="ytick_1">
     <g id="line2d_13">
      <path d="M 38.7625 121.119375 
L 206.1625 121.119375 
" clip-path="url(#p3f5ff0a935)" style="fill: none; stroke-dasharray: 3.7,1.6; stroke-dashoffset: 0; stroke: #b0b0b0"/>
     </g>
     <g id="line2d_14">
      <defs>
       <path id="mbb753b2631" d="M 0 0 
L -3.5 0 
" style="stroke: #000000; stroke-width: 0.8"/>
      </defs>
      <g>
       <use xlink:href="#mbb753b2631" x="38.7625" y="121.119375" style="stroke: #000000; stroke-width: 0.8"/>
      </g>
     </g>
     <g id="text_8">
      <!-- 0.0 -->
      <g transform="translate(19.04 124.15875) scale(0.08 -0.08)">
       <defs>
        <path id="DejaVuSans-2e" d="M 684 794 
L 1344 794 
L 1344 0 
L 684 0 
L 684 794 
z
" transform="scale(0.015625)"/>
       </defs>
       <use xlink:href="#DejaVuSans-30"/>
       <use xlink:href="#DejaVuSans-2e" x="63.623047"/>
       <use xlink:href="#DejaVuSans-30" x="95.410156"/>
      </g>
     </g>
    </g>
    <g id="ytick_2">
     <g id="line2d_15">
      <path d="M 38.7625 93.399375 
L 206.1625 93.399375 
" clip-path="url(#p3f5ff0a935)" style="fill: none; stroke-dasharray: 3.7,1.6; stroke-dashoffset: 0; stroke: #b0b0b0"/>
     </g>
     <g id="line2d_16">
      <g>
       <use xlink:href="#mbb753b2631" x="38.7625" y="93.399375" style="stroke: #000000; stroke-width: 0.8"/>
      </g>
     </g>
     <g id="text_9">
      <!-- 0.1 -->
      <g transform="translate(19.04 96.43875) scale(0.08 -0.08)">
       <use xlink:href="#DejaVuSans-30"/>
       <use xlink:href="#DejaVuSans-2e" x="63.623047"/>
       <use xlink:href="#DejaVuSans-31" x="95.410156"/>
      </g>
     </g>
    </g>
    <g id="ytick_3">
     <g id="line2d_17">
      <path d="M 38.7625 65.679375 
L 206.1625 65.679375 
" clip-path="url(#p3f5ff0a935)" style="fill: none; stroke-dasharray: 3.7,1.6; stroke-dashoffset: 0; stroke: #b0b0b0"/>
     </g>
     <g id="line2d_18">
      <g>
       <use xlink:href="#mbb753b2631" x="38.7625" y="65.679375" style="stroke: #000000; stroke-width: 0.8"/>
      </g>
     </g>
     <g id="text_10">
      <!-- 0.2 -->
      <g transform="translate(19.04 68.71875) scale(0.08 -0.08)">
       <use xlink:href="#DejaVuSans-30"/>
       <use xlink:href="#DejaVuSans-2e" x="63.623047"/>
       <use xlink:href="#DejaVuSans-32" x="95.410156"/>
      </g>
     </g>
    </g>
    <g id="ytick_4">
     <g id="line2d_19">
      <path d="M 38.7625 37.959375 
L 206.1625 37.959375 
" clip-path="url(#p3f5ff0a935)" style="fill: none; stroke-dasharray: 3.7,1.6; stroke-dashoffset: 0; stroke: #b0b0b0"/>
     </g>
     <g id="line2d_20">
      <g>
       <use xlink:href="#mbb753b2631" x="38.7625" y="37.959375" style="stroke: #000000; stroke-width: 0.8"/>
      </g>
     </g>
     <g id="text_11">
      <!-- 0.3 -->
      <g transform="translate(19.04 40.99875) scale(0.08 -0.08)">
       <use xlink:href="#DejaVuSans-30"/>
       <use xlink:href="#DejaVuSans-2e" x="63.623047"/>
       <use xlink:href="#DejaVuSans-33" x="95.410156"/>
      </g>
     </g>
    </g>
    <g id="ytick_5">
     <g id="line2d_21">
      <path d="M 38.7625 10.239375 
L 206.1625 10.239375 
" clip-path="url(#p3f5ff0a935)" style="fill: none; stroke-dasharray: 3.7,1.6; stroke-dashoffset: 0; stroke: #b0b0b0"/>
     </g>
     <g id="line2d_22">
      <g>
       <use xlink:href="#mbb753b2631" x="38.7625" y="10.239375" style="stroke: #000000; stroke-width: 0.8"/>
      </g>
     </g>
     <g id="text_12">
      <!-- 0.4 -->
      <g transform="translate(19.04 13.27875) scale(0.08 -0.08)">
       <use xlink:href="#DejaVuSans-30"/>
       <use xlink:href="#DejaVuSans-2e" x="63.623047"/>
       <use xlink:href="#DejaVuSans-34" x="95.410156"/>
      </g>
     </g>
    </g>
    <g id="text_13">
     <!-- Standard deviation, $\beta_{R}$ -->
     <g transform="translate(13.36 110.999375) rotate(-90) scale(0.08 -0.08)">
      <defs>
       <path id="DejaVuSans-53" d="M 3425 4513 
L 3425 3897 
Q 3066 4069 2747 4153 
Q 2428 4238 2131 4238 
Q 1616 4238 1336 4038 
Q 1056 3838 1056 3469 
Q 1056 3159 1242 3001 
Q 1428 2844 1947 2747 
L 2328 2669 
Q 3034 2534 3370 2195 
Q 3706 1856 3706 1288 
Q 3706 609 3251 259 
Q 2797 -91 1919 -91 
Q 1588 -91 1214 -16 
Q 841 59 441 206 
L 441 856 
Q 825 641 1194 531 
Q 1563 422 1919 422 
Q 2459 422 2753 634 
Q 3047 847 3047 1241 
Q 3047 1584 2836 1778 
Q 2625 1972 2144 2069 
L 1759 2144 
Q 1053 2284 737 2584 
Q 422 2884 422 3419 
Q 422 4038 858 4394 
Q 1294 4750 2059 4750 
Q 2388 4750 2728 4690 
Q 3069 4631 3425 4513 
z
" transform="scale(0.015625)"/>
       <path id="DejaVuSans-6f" d="M 1959 3097 
Q 1497 3097 1228 2736 
Q 959 2375 959 1747 
Q 959 1119 1226 758 
Q 1494 397 1959 397 
Q 2419 397 2687 759 
Q 2956 1122 2956 1747 
Q 2956 2369 2687 2733 
Q 2419 3097 1959 3097 
z
M 1959 3584 
Q 2709 3584 3137 3096 
Q 3566 2609 3566 1747 
Q 3566 888 3137 398 
Q 2709 -91 1959 -91 
Q 1206 -91 779 398 
Q 353 888 353 1747 
Q 353 2609 779 3096 
Q 1206 3584 1959 3584 
z
" transform="scale(0.015625)"/>
       <path id="DejaVuSans-Oblique-3b2" d="M 872 216 
L 572 -1331 
L -6 -1331 
L 928 3478 
Q 1206 4903 2538 4903 
Q 3888 4903 3659 3700 
Q 3503 2844 2894 2531 
Q 3713 2250 3553 1416 
Q 3272 -69 1759 -66 
Q 1097 -63 872 216 
z
M 1019 966 
Q 1259 422 1875 425 
Q 2775 425 2966 1406 
Q 3138 2288 1675 2219 
L 1778 2750 
Q 2909 2731 3106 3750 
Q 3241 4438 2509 4434 
Q 1691 4434 1503 3459 
L 1019 966 
z
" transform="scale(0.015625)"/>
       <path id="DejaVuSans-Oblique-52" d="M 1613 4147 
L 1294 2491 
L 2106 2491 
Q 2584 2491 2879 2755 
Q 3175 3019 3175 3444 
Q 3175 3784 2976 3965 
Q 2778 4147 2406 4147 
L 1613 4147 
z
M 2772 2241 
Q 2972 2194 3105 2009 
Q 3238 1825 3413 1275 
L 3809 0 
L 3144 0 
L 2778 1197 
Q 2638 1659 2453 1815 
Q 2269 1972 1888 1972 
L 1191 1972 
L 806 0 
L 172 0 
L 1081 4666 
L 2503 4666 
Q 3150 4666 3495 4373 
Q 3841 4081 3841 3531 
Q 3841 3044 3547 2687 
Q 3253 2331 2772 2241 
z
" transform="scale(0.015625)"/>
      </defs>
      <use xlink:href="#DejaVuSans-53" transform="translate(0 0.390625)"/>
      <use xlink:href="#DejaVuSans-74" transform="translate(63.476562 0.390625)"/>
      <use xlink:href="#DejaVuSans-61" transform="translate(102.685547 0.390625)"/>
      <use xlink:href="#DejaVuSans-6e" transform="translate(163.964844 0.390625)"/>
      <use xlink:href="#DejaVuSans-64" transform="translate(227.34375 0.390625)"/>
      <use xlink:href="#DejaVuSans-61" transform="translate(290.820312 0.390625)"/>
      <use xlink:href="#DejaVuSans-72" transform="translate(352.099609 0.390625)"/>
      <use xlink:href="#DejaVuSans-64" transform="translate(393.212891 0.390625)"/>
      <use xlink:href="#DejaVuSans-20" transform="translate(456.689453 0.390625)"/>
      <use xlink:href="#DejaVuSans-64" transform="translate(488.476562 0.390625)"/>
      <use xlink:href="#DejaVuSans-65" transform="translate(551.953125 0.390625)"/>
      <use xlink:href="#DejaVuSans-76" transform="translate(613.476562 0.390625)"/>
      <use xlink:href="#DejaVuSans-69" transform="translate(672.65625 0.390625)"/>
      <use xlink:href="#DejaVuSans-61" transform="translate(700.439453 0.390625)"/>
      <use xlink:href="#DejaVuSans-74" transform="translate(761.71875 0.390625)"/>
      <use xlink:href="#DejaVuSans-69" transform="translate(800.927734 0.390625)"/>
      <use xlink:href="#DejaVuSans-6f" transform="translate(828.710938 0.390625)"/>
      <use xlink:href="#DejaVuSans-6e" transform="translate(889.892578 0.390625)"/>
      <use xlink:href="#DejaVuSans-2c" transform="translate(953.271484 0.390625)"/>
      <use xlink:href="#DejaVuSans-20" transform="translate(985.058594 0.390625)"/>
      <use xlink:href="#DejaVuSans-Oblique-3b2" transform="translate(1016.845703 0.390625)"/>
      <use xlink:href="#DejaVuSans-Oblique-52" transform="translate(1080.664062 -16.015625) scale(0.7)"/>
     </g>
    </g>
   </g>
   <g id="line2d_23">
    <path d="M 59.6875 85.987871 
L 68.0575 90.682712 
L 76.4275 95.914796 
L 84.7975 86.246295 
L 93.1675 74.222413 
L 101.5375 57.86395 
L 109.9075 70.324592 
L 118.2775 78.603182 
L 126.6475 14.015802 
L 135.0175 121.119375 
L 143.3875 107.324573 
L 151.7575 48.808302 
" clip-path="url(#p3f5ff0a935)" style="fill: none; stroke: #bdbebf; stroke-width: 1.5; stroke-linecap: square"/>
   </g>
   <g id="line2d_24">
    <path d="M 59.6875 84.620551 
L 68.0575 89.818045 
L 76.4275 96.863834 
L 84.7975 81.8348 
L 93.1675 75.216208 
L 101.5375 60.363314 
L 109.9075 74.500527 
L 118.2775 56.272885 
L 126.6475 56.537338 
L 135.0175 71.446248 
L 143.3875 32.207386 
L 151.7575 65.367432 
L 160.1275 28.80297 
L 168.4975 44.98954 
L 176.8675 54.444081 
L 185.2375 38.343176 
M 201.9775 92.778013 
" clip-path="url(#p3f5ff0a935)" style="fill: none; stroke: #bdbebf; stroke-width: 1.5; stroke-linecap: square"/>
   </g>
   <g id="line2d_25">
    <path d="M 59.6875 86.210617 
L 68.0575 90.827911 
L 76.4275 90.729589 
L 84.7975 77.892604 
L 93.1675 65.220946 
L 101.5375 64.15318 
L 109.9075 57.153801 
L 118.2775 50.899388 
L 126.6475 73.641659 
L 135.0175 56.184599 
L 143.3875 30.321985 
L 151.7575 59.131127 
L 160.1275 91.479326 
L 168.4975 36.915452 
L 176.8675 43.688377 
L 185.2375 2.594421 
L 193.6075 31.419354 
L 201.9775 66.539323 
" clip-path="url(#p3f5ff0a935)" style="fill: none; stroke: #bdbebf; stroke-width: 1.5; stroke-linecap: square"/>
   </g>
   <g id="line2d_26">
    <path d="M 59.6875 85.591746 
L 68.0575 89.060226 
L 76.4275 89.688954 
L 84.7975 88.951319 
L 93.1675 68.328345 
L 101.5375 65.698631 
L 109.9075 57.046938 
L 118.2775 74.511356 
L 126.6475 66.553737 
L 135.0175 59.630041 
L 143.3875 32.397395 
L 151.7575 14.437087 
L 160.1275 78.235643 
L 168.4975 46.764071 
L 176.8675 72.490486 
L 185.2375 80.48353 
L 193.6075 39.167857 
L 201.9775 70.538114 
" clip-path="url(#p3f5ff0a935)" style="fill: none; stroke: #bdbebf; stroke-width: 1.5; stroke-linecap: square"/>
   </g>
   <g id="line2d_27">
    <path d="M 59.6875 85.910997 
L 68.0575 91.953371 
L 76.4275 91.087326 
L 84.7975 79.28452 
L 93.1675 61.740276 
L 101.5375 53.485738 
L 109.9075 34.661755 
L 118.2775 57.518267 
L 126.6475 46.547725 
L 135.0175 64.781803 
L 143.3875 66.376859 
L 151.7575 37.462063 
L 160.1275 121.119375 
M 176.8675 121.119375 
L 185.2375 121.119375 
M 201.9775 121.119375 
" clip-path="url(#p3f5ff0a935)" style="fill: none; stroke: #bdbebf; stroke-width: 1.5; stroke-linecap: square"/>
   </g>
   <g id="line2d_28">
    <path d="M 59.6875 86.648848 
L 68.0575 93.289116 
L 76.4275 90.948526 
L 84.7975 79.999228 
L 93.1675 64.086688 
L 101.5375 48.282213 
L 109.9075 46.542071 
L 118.2775 38.821433 
L 126.6475 25.093743 
L 135.0175 37.495245 
L 143.3875 24.861041 
L 151.7575 24.013983 
L 160.1275 25.898645 
L 168.4975 25.967542 
L 176.8675 28.363187 
L 185.2375 18.501107 
L 193.6075 12.483408 
L 201.9775 19.235132 
" clip-path="url(#p3f5ff0a935)" style="fill: none; stroke: #bdbebf; stroke-width: 1.5; stroke-linecap: square"/>
   </g>
   <g id="line2d_29">
    <path d="M 59.6875 86.630208 
L 68.0575 91.877251 
L 76.4275 91.374382 
L 84.7975 79.503404 
L 93.1675 62.999899 
L 101.5375 51.912263 
L 109.9075 34.002336 
L 118.2775 28.074739 
L 126.6475 41.334764 
L 135.0175 22.936191 
L 143.3875 34.12757 
L 151.7575 34.238318 
L 160.1275 19.610342 
L 168.4975 29.787654 
L 176.8675 20.97812 
L 185.2375 36.012524 
L 193.6075 17.263421 
L 201.9775 21.050485 
" clip-path="url(#p3f5ff0a935)" style="fill: none; stroke: #bdbebf; stroke-width: 1.5; stroke-linecap: square"/>
   </g>
   <g id="line2d_30">
    <path d="M 59.6875 87.548913 
L 68.0575 92.36634 
L 76.4275 90.851325 
L 84.7975 80.469514 
L 93.1675 62.085813 
L 101.5375 51.990906 
L 109.9075 27.11582 
L 118.2775 31.321918 
L 126.6475 21.860528 
L 135.0175 18.352575 
L 143.3875 24.176907 
L 151.7575 29.590933 
L 160.1275 36.663438 
L 168.4975 29.445219 
L 176.8675 24.14082 
L 185.2375 13.442211 
L 193.6075 24.99059 
L 201.9775 14.228734 
" clip-path="url(#p3f5ff0a935)" style="fill: none; stroke: #bdbebf; stroke-width: 1.5; stroke-linecap: square"/>
   </g>
   <g id="line2d_31">
    <path d="M 59.6875 88.65657 
L 68.0575 98.243219 
L 76.4275 92.903011 
L 84.7975 79.626299 
L 93.1675 64.40484 
L 101.5375 53.419799 
L 109.9075 46.132182 
L 118.2775 41.116753 
L 126.6475 38.996124 
L 135.0175 44.561941 
L 143.3875 37.060037 
L 151.7575 38.980866 
L 160.1275 49.286965 
L 168.4975 52.681031 
L 176.8675 61.183807 
L 185.2375 73.190564 
L 193.6075 75.969868 
L 201.9775 121.119375 
" clip-path="url(#p3f5ff0a935)" style="fill: none; stroke: #bdbebf; stroke-width: 1.5; stroke-linecap: square"/>
   </g>
   <g id="line2d_32">
    <path d="M 59.6875 89.358687 
L 68.0575 97.110064 
L 76.4275 93.216213 
L 84.7975 80.673269 
L 93.1675 60.155138 
L 101.5375 54.232608 
L 109.9075 45.384825 
L 118.2775 39.965144 
L 126.6475 41.277853 
L 135.0175 42.259193 
L 143.3875 40.859756 
L 151.7575 39.487754 
L 160.1275 35.606018 
L 168.4975 36.813896 
L 176.8675 35.788637 
L 185.2375 44.984471 
L 193.6075 47.209877 
L 201.9775 39.459285 
" clip-path="url(#p3f5ff0a935)" style="fill: none; stroke: #bdbebf; stroke-width: 1.5; stroke-linecap: square"/>
   </g>
   <g id="line2d_33">
    <path d="M 59.6875 89.094241 
L 68.0575 97.992611 
L 76.4275 92.095758 
L 84.7975 78.698333 
L 93.1675 61.149392 
L 101.5375 56.594501 
L 109.9075 45.994201 
L 118.2775 42.541369 
L 126.6475 39.142407 
L 135.0175 35.93765 
L 143.3875 33.436955 
L 151.7575 33.282708 
L 160.1275 33.970646 
L 168.4975 29.358754 
L 176.8675 39.61739 
L 185.2375 38.490662 
L 193.6075 39.335753 
L 201.9775 40.424761 
" clip-path="url(#p3f5ff0a935)" style="fill: none; stroke: #bdbebf; stroke-width: 1.5; stroke-linecap: square"/>
   </g>
   <g id="line2d_34">
    <path d="M 59.6875 89.004843 
L 68.0575 97.832753 
L 76.4275 92.653722 
L 84.7975 78.635837 
L 93.1675 59.574179 
L 101.5375 55.206657 
L 109.9075 46.402583 
L 118.2775 38.047113 
L 126.6475 36.299671 
L 135.0175 45.154987 
L 143.3875 34.109585 
L 151.7575 42.995497 
L 160.1275 34.781037 
L 168.4975 34.941873 
L 176.8675 37.383009 
L 185.2375 38.456766 
L 193.6075 34.027783 
L 201.9775 39.063635 
" clip-path="url(#p3f5ff0a935)" style="fill: none; stroke: #bdbebf; stroke-width: 1.5; stroke-linecap: square"/>
   </g>
   <g id="line2d_35">
    <path d="M 59.6875 89.760248 
L 68.0575 97.74859 
L 76.4275 89.270081 
L 84.7975 78.640285 
L 93.1675 62.473894 
L 101.5375 54.964987 
L 109.9075 48.914199 
L 118.2775 44.01597 
L 126.6475 45.526418 
L 135.0175 47.202611 
L 143.3875 51.393715 
L 151.7575 38.46218 
L 160.1275 35.187667 
L 168.4975 51.264287 
L 176.8675 47.157949 
L 185.2375 46.615757 
L 193.6075 69.335605 
L 201.9775 121.119375 
" clip-path="url(#p3f5ff0a935)" style="fill: none; stroke: #bdbebf; stroke-width: 1.5; stroke-linecap: square"/>
   </g>
   <g id="line2d_36">
    <path d="M 59.6875 89.69096 
L 68.0575 97.950309 
L 76.4275 90.064499 
L 84.7975 76.515282 
L 93.1675 67.421993 
L 101.5375 54.363603 
L 109.9075 50.924557 
L 118.2775 44.647304 
L 126.6475 45.556106 
L 135.0175 45.774824 
L 143.3875 45.856255 
L 151.7575 43.582501 
L 160.1275 48.539959 
L 168.4975 54.792225 
L 176.8675 51.130689 
L 185.2375 53.101601 
L 193.6075 57.18863 
L 201.9775 54.245695 
" clip-path="url(#p3f5ff0a935)" style="fill: none; stroke: #bdbebf; stroke-width: 1.5; stroke-linecap: square"/>
   </g>
   <g id="line2d_37">
    <path d="M 59.6875 89.231909 
L 68.0575 98.798442 
L 76.4275 89.237186 
L 84.7975 77.182774 
L 93.1675 63.681903 
L 101.5375 55.61021 
L 109.9075 47.464174 
L 118.2775 48.71414 
L 126.6475 47.473397 
L 135.0175 44.023944 
L 143.3875 46.956599 
L 151.7575 47.751512 
L 160.1275 45.50579 
L 168.4975 48.148317 
L 176.8675 48.188806 
L 185.2375 52.443763 
L 193.6075 50.992511 
L 201.9775 51.842042 
" clip-path="url(#p3f5ff0a935)" style="fill: none; stroke: #bdbebf; stroke-width: 1.5; stroke-linecap: square"/>
   </g>
   <g id="line2d_38">
    <path d="M 59.6875 89.812944 
L 68.0575 97.710954 
L 76.4275 88.655051 
L 84.7975 74.950447 
L 93.1675 62.018483 
L 101.5375 56.727958 
L 109.9075 49.910775 
L 118.2775 44.559365 
L 126.6475 44.972965 
L 135.0175 48.336325 
L 143.3875 46.488361 
L 151.7575 48.552018 
L 160.1275 48.843389 
L 168.4975 53.281168 
L 176.8675 50.95849 
L 185.2375 46.398388 
L 193.6075 54.526326 
L 201.9775 50.802676 
" clip-path="url(#p3f5ff0a935)" style="fill: none; stroke: #bdbebf; stroke-width: 1.5; stroke-linecap: square"/>
   </g>
   <g id="line2d_39">
    <path d="M 59.6875 88.970469 
L 68.0575 97.940914 
L 76.4275 90.091927 
L 84.7975 76.921247 
L 93.1675 61.809585 
L 101.5375 53.87691 
L 109.9075 47.560425 
L 118.2775 44.349499 
L 126.6475 39.875647 
L 135.0175 48.490761 
L 143.3875 53.416374 
L 151.7575 47.518031 
L 160.1275 50.843919 
L 168.4975 59.077859 
L 176.8675 63.078667 
L 185.2375 52.922117 
L 193.6075 63.978901 
L 201.9775 39.903442 
" clip-path="url(#p3f5ff0a935)" style="fill: none; stroke: #bdbebf; stroke-width: 1.5; stroke-linecap: square"/>
   </g>
   <g id="line2d_40">
    <path d="M 59.6875 88.845415 
L 68.0575 97.914144 
L 76.4275 90.353045 
L 84.7975 77.427363 
L 93.1675 62.81282 
L 101.5375 50.917748 
L 109.9075 45.753858 
L 118.2775 46.171105 
L 126.6475 44.514044 
L 135.0175 48.788396 
L 143.3875 47.182037 
L 151.7575 52.889585 
L 160.1275 54.158462 
L 168.4975 51.233445 
L 176.8675 54.69919 
L 185.2375 56.429343 
L 193.6075 61.565265 
L 201.9775 62.636647 
" clip-path="url(#p3f5ff0a935)" style="fill: none; stroke: #bdbebf; stroke-width: 1.5; stroke-linecap: square"/>
   </g>
   <g id="line2d_41">
    <path d="M 59.6875 89.098172 
L 68.0575 98.305428 
L 76.4275 89.427605 
L 84.7975 75.483136 
L 93.1675 60.165269 
L 101.5375 53.218559 
L 109.9075 45.519645 
L 118.2775 45.107688 
L 126.6475 46.386506 
L 135.0175 46.700492 
L 143.3875 49.533921 
L 151.7575 50.224564 
L 160.1275 53.577128 
L 168.4975 52.866987 
L 176.8675 56.603678 
L 185.2375 52.112135 
L 193.6075 60.176542 
L 201.9775 53.628232 
" clip-path="url(#p3f5ff0a935)" style="fill: none; stroke: #bdbebf; stroke-width: 1.5; stroke-linecap: square"/>
   </g>
   <g id="line2d_42">
    <path d="M 59.6875 88.907313 
L 68.0575 98.236885 
L 76.4275 90.464535 
L 84.7975 75.315927 
L 93.1675 62.066301 
L 101.5375 53.353538 
L 109.9075 48.940287 
L 118.2775 48.483175 
L 126.6475 45.518653 
L 135.0175 45.083513 
L 143.3875 48.300424 
L 151.7575 51.076054 
L 160.1275 54.88074 
L 168.4975 56.558594 
L 176.8675 53.925859 
L 185.2375 52.716727 
L 193.6075 54.812691 
L 201.9775 58.152337 
" clip-path="url(#p3f5ff0a935)" style="fill: none; stroke: #bdbebf; stroke-width: 1.5; stroke-linecap: square"/>
   </g>
   <g id="line2d_43">
    <path d="M 59.6875 89.427931 
L 68.0575 97.992447 
L 76.4275 92.011529 
L 84.7975 77.775222 
L 93.1675 66.599115 
L 101.5375 59.296829 
L 109.9075 50.635489 
L 118.2775 50.651875 
L 126.6475 52.288305 
L 135.0175 49.23977 
L 143.3875 56.783849 
L 151.7575 48.207081 
L 160.1275 51.092286 
L 168.4975 55.526761 
L 176.8675 58.040364 
L 185.2375 82.111313 
L 193.6075 62.829981 
L 201.9775 52.473369 
" clip-path="url(#p3f5ff0a935)" style="fill: none; stroke: #bdbebf; stroke-width: 1.5; stroke-linecap: square"/>
   </g>
   <g id="line2d_44">
    <path d="M 59.6875 88.799081 
L 68.0575 98.799654 
L 76.4275 89.242752 
L 84.7975 80.574724 
L 93.1675 68.053598 
L 101.5375 58.716547 
L 109.9075 51.500718 
L 118.2775 49.496855 
L 126.6475 49.478022 
L 135.0175 45.628187 
L 143.3875 52.907958 
L 151.7575 50.224354 
L 160.1275 58.185353 
L 168.4975 57.251514 
L 176.8675 53.865702 
L 185.2375 65.178934 
L 193.6075 63.03445 
L 201.9775 66.329404 
" clip-path="url(#p3f5ff0a935)" style="fill: none; stroke: #bdbebf; stroke-width: 1.5; stroke-linecap: square"/>
   </g>
   <g id="line2d_45">
    <path d="M 59.6875 87.97158 
L 68.0575 97.660928 
L 76.4275 91.726069 
L 84.7975 77.658002 
L 93.1675 67.235528 
L 101.5375 61.392992 
L 109.9075 54.09114 
L 118.2775 50.344381 
L 126.6475 52.127556 
L 135.0175 48.35438 
L 143.3875 51.89068 
L 151.7575 55.45277 
L 160.1275 57.740511 
L 168.4975 56.080611 
L 176.8675 60.198137 
L 185.2375 58.190733 
L 193.6075 63.617289 
L 201.9775 68.391079 
" clip-path="url(#p3f5ff0a935)" style="fill: none; stroke: #bdbebf; stroke-width: 1.5; stroke-linecap: square"/>
   </g>
   <g id="line2d_46">
    <path d="M 59.6875 89.17292 
L 68.0575 98.570952 
L 76.4275 89.588255 
L 84.7975 77.6999 
L 93.1675 67.534456 
L 101.5375 60.496888 
L 109.9075 50.889688 
L 118.2775 50.667582 
L 126.6475 47.072092 
L 135.0175 47.370656 
L 143.3875 52.827691 
L 151.7575 51.665185 
L 160.1275 56.893306 
L 168.4975 58.100669 
L 176.8675 55.156014 
L 185.2375 58.434431 
L 193.6075 59.684519 
L 201.9775 61.051377 
" clip-path="url(#p3f5ff0a935)" style="fill: none; stroke: #bdbebf; stroke-width: 1.5; stroke-linecap: square"/>
   </g>
   <g id="line2d_47">
    <path d="M 59.6875 89.665561 
L 68.0575 98.081173 
L 76.4275 90.134718 
L 84.7975 77.1812 
L 93.1675 65.655662 
L 101.5375 57.644091 
L 109.9075 52.378922 
L 118.2775 51.613166 
L 126.6475 52.027141 
L 135.0175 57.431147 
L 143.3875 57.650349 
L 151.7575 53.00048 
L 160.1275 61.105268 
L 168.4975 59.372066 
L 176.8675 64.419293 
L 185.2375 63.631322 
L 193.6075 50.425424 
L 201.9775 80.369384 
" clip-path="url(#p3f5ff0a935)" style="fill: none; stroke: #bdbebf; stroke-width: 1.5; stroke-linecap: square"/>
   </g>
   <g id="line2d_48">
    <path d="M 59.6875 88.78898 
L 68.0575 98.504888 
L 76.4275 90.101529 
L 84.7975 79.52864 
L 93.1675 63.323222 
L 101.5375 58.562868 
L 109.9075 52.771787 
L 118.2775 49.332852 
L 126.6475 50.670302 
L 135.0175 50.43915 
L 143.3875 52.276842 
L 151.7575 56.056649 
L 160.1275 57.360401 
L 168.4975 58.601646 
L 176.8675 61.733879 
L 185.2375 67.726018 
L 193.6075 66.003059 
L 201.9775 61.688004 
" clip-path="url(#p3f5ff0a935)" style="fill: none; stroke: #bdbebf; stroke-width: 1.5; stroke-linecap: square"/>
   </g>
   <g id="line2d_49">
    <path d="M 59.6875 88.252905 
L 68.0575 98.804045 
L 76.4275 89.794855 
L 84.7975 76.6632 
L 93.1675 65.165541 
L 101.5375 57.68189 
L 109.9075 52.654817 
L 118.2775 51.172261 
L 126.6475 54.107592 
L 135.0175 55.71031 
L 143.3875 55.520651 
L 151.7575 57.762933 
L 160.1275 56.497873 
L 168.4975 63.228073 
L 176.8675 61.60983 
L 185.2375 65.73868 
L 193.6075 63.958676 
L 201.9775 69.237042 
" clip-path="url(#p3f5ff0a935)" style="fill: none; stroke: #bdbebf; stroke-width: 1.5; stroke-linecap: square"/>
   </g>
   <g id="line2d_50">
    <path d="M 59.6875 90.151698 
L 68.0575 98.585766 
L 76.4275 89.598688 
L 84.7975 76.574582 
L 93.1675 68.12664 
L 101.5375 56.586023 
L 109.9075 50.117489 
L 118.2775 51.53239 
L 126.6475 53.11412 
L 135.0175 51.520434 
L 143.3875 54.262939 
L 151.7575 56.194773 
L 160.1275 57.797885 
L 168.4975 64.306126 
L 176.8675 63.473572 
L 185.2375 62.382646 
L 193.6075 64.388065 
L 201.9775 60.862545 
" clip-path="url(#p3f5ff0a935)" style="fill: none; stroke: #bdbebf; stroke-width: 1.5; stroke-linecap: square"/>
   </g>
   <g id="line2d_51">
    <path d="M 59.6875 90.138846 
L 68.0575 97.720304 
L 76.4275 88.95259 
L 84.7975 76.658084 
L 93.1675 66.058537 
L 101.5375 52.766658 
L 109.9075 52.04691 
L 118.2775 52.630942 
L 126.6475 49.7815 
L 135.0175 49.991306 
L 143.3875 55.711206 
L 151.7575 52.108611 
L 160.1275 48.092146 
L 168.4975 52.711248 
L 176.8675 58.287381 
L 185.2375 67.477416 
L 193.6075 48.536414 
L 201.9775 86.626769 
" clip-path="url(#p3f5ff0a935)" style="fill: none; stroke: #bdbebf; stroke-width: 1.5; stroke-linecap: square"/>
   </g>
   <g id="line2d_52">
    <path d="M 59.6875 89.588415 
L 68.0575 98.429248 
L 76.4275 89.76204 
L 84.7975 76.378771 
L 93.1675 66.337794 
L 101.5375 52.463231 
L 109.9075 53.953766 
L 118.2775 47.78467 
L 126.6475 51.411487 
L 135.0175 56.880924 
L 143.3875 51.521164 
L 151.7575 61.788576 
L 160.1275 59.610364 
L 168.4975 63.937434 
L 176.8675 60.480224 
L 185.2375 57.504972 
L 193.6075 58.497243 
L 201.9775 63.289377 
" clip-path="url(#p3f5ff0a935)" style="fill: none; stroke: #bdbebf; stroke-width: 1.5; stroke-linecap: square"/>
   </g>
   <g id="line2d_53">
    <path d="M 59.6875 88.8979 
L 68.0575 99.225085 
L 76.4275 90.267791 
L 84.7975 76.607101 
L 93.1675 63.128211 
L 101.5375 53.521964 
L 109.9075 53.651152 
L 118.2775 49.111563 
L 126.6475 51.525462 
L 135.0175 51.816376 
L 143.3875 52.465272 
L 151.7575 55.553952 
L 160.1275 59.567123 
L 168.4975 60.535479 
L 176.8675 60.203261 
L 185.2375 61.662213 
L 193.6075 58.971335 
L 201.9775 65.248377 
" clip-path="url(#p3f5ff0a935)" style="fill: none; stroke: #bdbebf; stroke-width: 1.5; stroke-linecap: square"/>
   </g>
   <g id="line2d_54">
    <path d="M 59.6875 89.040422 
L 68.0575 98.275202 
L 76.4275 90.799322 
L 84.7975 77.20773 
L 93.1675 66.10617 
L 101.5375 52.795622 
L 109.9075 54.090529 
L 118.2775 49.284709 
L 126.6475 44.707739 
L 135.0175 52.796606 
L 143.3875 53.425345 
L 151.7575 55.459869 
L 160.1275 56.449427 
L 168.4975 67.833999 
L 176.8675 65.083425 
L 185.2375 61.18583 
L 193.6075 61.670568 
L 201.9775 65.402796 
" clip-path="url(#p3f5ff0a935)" style="fill: none; stroke: #bdbebf; stroke-width: 1.5; stroke-linecap: square"/>
   </g>
   <g id="line2d_55">
    <path d="M 59.6875 89.250829 
L 68.0575 97.031978 
L 76.4275 88.4862 
L 84.7975 78.479208 
L 93.1675 61.036244 
L 101.5375 52.600992 
L 109.9075 50.39727 
L 118.2775 44.883466 
L 126.6475 50.951705 
L 135.0175 53.065871 
L 143.3875 54.262474 
L 151.7575 52.193725 
L 160.1275 54.531113 
L 168.4975 47.527742 
L 176.8675 53.628395 
L 185.2375 43.550514 
L 193.6075 49.200542 
L 201.9775 64.683444 
" clip-path="url(#p3f5ff0a935)" style="fill: none; stroke: #bdbebf; stroke-width: 1.5; stroke-linecap: square"/>
   </g>
   <g id="line2d_56">
    <path d="M 59.6875 88.439181 
L 68.0575 97.762833 
L 76.4275 90.02187 
L 84.7975 77.492825 
L 93.1675 60.487887 
L 101.5375 49.600015 
L 109.9075 45.195022 
L 118.2775 47.193762 
L 126.6475 49.890575 
L 135.0175 52.783871 
L 143.3875 54.707547 
L 151.7575 53.919828 
L 160.1275 56.497567 
L 168.4975 64.02974 
L 176.8675 62.863774 
L 185.2375 68.785562 
L 193.6075 72.438331 
L 201.9775 73.995303 
" clip-path="url(#p3f5ff0a935)" style="fill: none; stroke: #bdbebf; stroke-width: 1.5; stroke-linecap: square"/>
   </g>
   <g id="line2d_57">
    <path d="M 59.6875 89.426797 
L 68.0575 97.334271 
L 76.4275 89.511449 
L 84.7975 77.913645 
L 93.1675 63.334157 
L 101.5375 51.820016 
L 109.9075 52.108966 
L 118.2775 49.290239 
L 126.6475 52.009182 
L 135.0175 50.993177 
L 143.3875 54.832046 
L 151.7575 60.714583 
L 160.1275 56.00553 
L 168.4975 57.47432 
L 176.8675 57.377514 
L 185.2375 66.566554 
L 193.6075 67.320624 
L 201.9775 58.168002 
" clip-path="url(#p3f5ff0a935)" style="fill: none; stroke: #bdbebf; stroke-width: 1.5; stroke-linecap: square"/>
   </g>
   <g id="line2d_58">
    <path d="M 59.6875 89.494174 
L 68.0575 97.588301 
L 76.4275 90.079952 
L 84.7975 73.933008 
L 93.1675 59.818607 
L 101.5375 53.308531 
L 109.9075 49.314684 
L 118.2775 50.739105 
L 126.6475 48.318635 
L 135.0175 51.408028 
L 143.3875 54.998304 
L 151.7575 52.889778 
L 160.1275 57.470625 
L 168.4975 59.295316 
L 176.8675 63.800775 
L 185.2375 59.134671 
L 193.6075 56.308184 
L 201.9775 60.571348 
" clip-path="url(#p3f5ff0a935)" style="fill: none; stroke: #bdbebf; stroke-width: 1.5; stroke-linecap: square"/>
   </g>
   <g id="line2d_59">
    <path d="M 59.6875 88.368624 
L 68.0575 97.703413 
L 76.4275 89.4618 
L 84.7975 78.287464 
L 93.1675 63.898351 
L 101.5375 56.261506 
L 109.9075 46.523065 
L 118.2775 49.91051 
L 126.6475 50.768107 
L 135.0175 57.196758 
L 143.3875 45.200402 
L 151.7575 47.622928 
L 160.1275 49.075449 
L 168.4975 52.430631 
L 176.8675 49.056631 
L 185.2375 62.225855 
L 193.6075 61.111355 
L 201.9775 43.608245 
" clip-path="url(#p3f5ff0a935)" style="fill: none; stroke: #bdbebf; stroke-width: 1.5; stroke-linecap: square"/>
   </g>
   <g id="line2d_60">
    <path d="M 59.6875 89.229179 
L 68.0575 97.529562 
L 76.4275 88.735229 
L 84.7975 78.543489 
L 93.1675 63.776635 
L 101.5375 56.973272 
L 109.9075 49.961142 
L 118.2775 48.000747 
L 126.6475 50.329424 
L 135.0175 52.140345 
L 143.3875 50.071178 
L 151.7575 52.659469 
L 160.1275 53.837959 
L 168.4975 60.567676 
L 176.8675 67.058218 
L 185.2375 62.943193 
L 193.6075 59.790888 
L 201.9775 66.431293 
" clip-path="url(#p3f5ff0a935)" style="fill: none; stroke: #bdbebf; stroke-width: 1.5; stroke-linecap: square"/>
   </g>
   <g id="line2d_61">
    <path d="M 59.6875 89.46409 
L 68.0575 97.448852 
L 76.4275 91.190574 
L 84.7975 76.5225 
L 93.1675 64.07048 
L 101.5375 53.954386 
L 109.9075 46.886399 
L 118.2775 52.260292 
L 126.6475 52.557583 
L 135.0175 49.924314 
L 143.3875 55.611759 
L 151.7575 54.458955 
L 160.1275 58.643401 
L 168.4975 59.933186 
L 176.8675 55.844305 
L 185.2375 58.544236 
L 193.6075 57.837458 
L 201.9775 52.221221 
" clip-path="url(#p3f5ff0a935)" style="fill: none; stroke: #bdbebf; stroke-width: 1.5; stroke-linecap: square"/>
   </g>
   <g id="line2d_62">
    <path d="M 59.6875 87.722028 
L 68.0575 98.035034 
L 76.4275 88.13463 
L 84.7975 77.343842 
L 93.1675 62.215901 
L 101.5375 54.303163 
L 109.9075 48.714405 
L 118.2775 46.332132 
L 126.6475 52.904507 
L 135.0175 50.374254 
L 143.3875 51.762082 
L 151.7575 54.736285 
L 160.1275 54.928273 
L 168.4975 47.472685 
L 176.8675 57.090259 
L 185.2375 52.769351 
L 193.6075 53.380601 
L 201.9775 56.231101 
" clip-path="url(#p3f5ff0a935)" style="fill: none; stroke: #bdbebf; stroke-width: 1.5; stroke-linecap: square"/>
   </g>
   <g id="line2d_63">
    <path d="M 59.6875 88.521817 
L 68.0575 96.668581 
L 76.4275 90.58733 
L 84.7975 78.331876 
L 93.1675 64.339928 
L 101.5375 55.424619 
L 109.9075 49.703323 
L 118.2775 48.399382 
L 126.6475 46.929153 
L 135.0175 50.733164 
L 143.3875 48.876937 
L 151.7575 48.263082 
L 160.1275 53.035213 
L 168.4975 51.608022 
L 176.8675 55.236194 
L 185.2375 55.489823 
L 193.6075 53.87701 
L 201.9775 61.917081 
" clip-path="url(#p3f5ff0a935)" style="fill: none; stroke: #0000ff; stroke-width: 1.5; stroke-linecap: square"/>
    <defs>
     <path id="m77fe4fb931" d="M 0 3 
C 0.795609 3 1.55874 2.683901 2.12132 2.12132 
C 2.683901 1.55874 3 0.795609 3 0 
C 3 -0.795609 2.683901 -1.55874 2.12132 -2.12132 
C 1.55874 -2.683901 0.795609 -3 0 -3 
C -0.795609 -3 -1.55874 -2.683901 -2.12132 -2.12132 
C -2.683901 -1.55874 -3 -0.795609 -3 0 
C -3 0.795609 -2.683901 1.55874 -2.12132 2.12132 
C -1.55874 2.683901 -0.795609 3 0 3 
z
" style="stroke: #0000ff"/>
    </defs>
    <g clip-path="url(#p3f5ff0a935)">
     <use xlink:href="#m77fe4fb931" x="59.6875" y="88.521817" style="fill: #0000ff; stroke: #0000ff"/>
     <use xlink:href="#m77fe4fb931" x="68.0575" y="96.668581" style="fill: #0000ff; stroke: #0000ff"/>
     <use xlink:href="#m77fe4fb931" x="76.4275" y="90.58733" style="fill: #0000ff; stroke: #0000ff"/>
     <use xlink:href="#m77fe4fb931" x="84.7975" y="78.331876" style="fill: #0000ff; stroke: #0000ff"/>
     <use xlink:href="#m77fe4fb931" x="93.1675" y="64.339928" style="fill: #0000ff; stroke: #0000ff"/>
     <use xlink:href="#m77fe4fb931" x="101.5375" y="55.424619" style="fill: #0000ff; stroke: #0000ff"/>
     <use xlink:href="#m77fe4fb931" x="109.9075" y="49.703323" style="fill: #0000ff; stroke: #0000ff"/>
     <use xlink:href="#m77fe4fb931" x="118.2775" y="48.399382" style="fill: #0000ff; stroke: #0000ff"/>
     <use xlink:href="#m77fe4fb931" x="126.6475" y="46.929153" style="fill: #0000ff; stroke: #0000ff"/>
     <use xlink:href="#m77fe4fb931" x="135.0175" y="50.733164" style="fill: #0000ff; stroke: #0000ff"/>
     <use xlink:href="#m77fe4fb931" x="143.3875" y="48.876937" style="fill: #0000ff; stroke: #0000ff"/>
     <use xlink:href="#m77fe4fb931" x="151.7575" y="48.263082" style="fill: #0000ff; stroke: #0000ff"/>
     <use xlink:href="#m77fe4fb931" x="160.1275" y="53.035213" style="fill: #0000ff; stroke: #0000ff"/>
     <use xlink:href="#m77fe4fb931" x="168.4975" y="51.608022" style="fill: #0000ff; stroke: #0000ff"/>
     <use xlink:href="#m77fe4fb931" x="176.8675" y="55.236194" style="fill: #0000ff; stroke: #0000ff"/>
     <use xlink:href="#m77fe4fb931" x="185.2375" y="55.489823" style="fill: #0000ff; stroke: #0000ff"/>
     <use xlink:href="#m77fe4fb931" x="193.6075" y="53.87701" style="fill: #0000ff; stroke: #0000ff"/>
     <use xlink:href="#m77fe4fb931" x="201.9775" y="61.917081" style="fill: #0000ff; stroke: #0000ff"/>
    </g>
   </g>
   <g id="patch_3">
    <path d="M 38.7625 121.119375 
L 38.7625 10.239375 
" style="fill: none; stroke: #000000; stroke-width: 0.8; stroke-linejoin: miter; stroke-linecap: square"/>
   </g>
   <g id="patch_4">
    <path d="M 206.1625 121.119375 
L 206.1625 10.239375 
" style="fill: none; stroke: #000000; stroke-width: 0.8; stroke-linejoin: miter; stroke-linecap: square"/>
   </g>
   <g id="patch_5">
    <path d="M 38.7625 121.119375 
L 206.1625 121.119375 
" style="fill: none; stroke: #000000; stroke-width: 0.8; stroke-linejoin: miter; stroke-linecap: square"/>
   </g>
   <g id="patch_6">
    <path d="M 38.7625 10.239375 
L 206.1625 10.239375 
" style="fill: none; stroke: #000000; stroke-width: 0.8; stroke-linejoin: miter; stroke-linecap: square"/>
   </g>
  </g>
 </g>
 <defs>
  <clipPath id="p3f5ff0a935">
   <rect x="38.7625" y="10.239375" width="167.4" height="110.88"/>
  </clipPath>
 </defs>
</svg>
